<svg width="27" height="20" viewBox="0 0 27 20" fill="none" xmlns="http://www.w3.org/2000/svg">
<path fill-rule="evenodd" clip-rule="evenodd" d="M0.447426 18.4305C1.01285 19.3849 2.008 19.9707 3.11172 19.9979H3.11398H3.19992H6.73271C6.35953 19.7921 6.0248 19.5206 5.73982 19.1882H5.73756L5.66971 19.1045L5.55662 18.9575C4.7311 17.8312 4.61575 16.3814 5.26034 15.133L12.6674 0.796115C12.8348 0.472693 13.0632 0.203552 13.3346 0H9.44902H9.37438C8.68456 0.0158318 8.08521 0.391272 7.76631 1.00419L0.359219 15.341C-0.149665 16.3226 -0.115739 17.4783 0.447426 18.4305ZM8.17342 19.9819C8.29555 19.9932 8.40411 20 8.50137 20V19.9977C9.65031 19.9977 10.7156 19.378 11.281 18.3806L13.2645 14.8863C13.7123 14.0947 14.3863 13.475 15.1779 13.0883H11.8238C10.3899 13.0883 9.06001 13.864 8.35209 15.1102L6.36858 18.6045C6.30072 18.7267 6.22157 18.8443 6.14014 18.9574C6.66938 19.5431 7.38634 19.905 8.17342 19.9819ZM17.6656 12.6383L12.3279 2.44263L13.072 1.00419C13.3932 0.375441 14.0106 0 14.7186 0C14.7593 0 14.8022 0 14.843 0.00452338C15.4898 0.0474955 16.0575 0.416151 16.3606 0.992882L22.4785 12.6383H17.6678H17.6656ZM17.9034 13.0911L21.4414 19.8278H26.289L22.7141 13.0911H17.9034Z" fill="#fff"/>
</svg>