<svg version="1.1" id="Layer_1" xmlns="http://www.w3.org/2000/svg" xmlns:xlink="http://www.w3.org/1999/xlink" x="0px" y="0px"
	 width="100%" viewBox="60 110 280 180" enable-background="new 0 0 400 400" xml:space="preserve">
<path fill="#242C3F" opacity="1.000000" stroke="none" 
	d="
M257.000000,401.000000 
	C171.333328,401.000000 86.166664,401.000000 1.000000,401.000000 
	C1.000000,267.666656 1.000000,134.333328 1.000000,1.000000 
	C134.333328,1.000000 267.666656,1.000000 401.000000,1.000000 
	C401.000000,134.333328 401.000000,267.666656 401.000000,401.000000 
	C353.166656,401.000000 305.333344,401.000000 257.000000,401.000000 
M60.498451,251.006393 
	C60.666485,251.000687 60.834522,250.994980 61.380997,251.576233 
	C63.265873,253.672119 64.877350,256.144379 67.107788,257.764526 
	C69.650581,259.611572 72.721008,260.750549 75.606621,262.102234 
	C78.644051,263.525055 81.734077,264.835632 85.040276,266.828094 
	C88.944145,268.957336 92.848007,271.086548 96.987251,273.865723 
	C99.051605,275.417725 100.903641,277.494263 103.217163,278.430695 
	C113.087975,282.426056 123.067085,286.161041 133.065735,289.830109 
	C137.374893,291.411346 141.826599,292.604614 146.215424,293.968079 
	C149.479309,294.982025 152.746216,295.986298 155.711594,297.661530 
	C154.428482,300.378082 155.270462,302.561829 158.173950,302.665680 
	C162.218964,302.810333 166.309311,302.237579 170.339859,301.679871 
	C170.990677,301.589783 171.431992,299.985657 172.892929,299.029846 
	C187.599335,299.371704 202.305725,299.713531 217.076019,300.821320 
	C218.183014,301.545959 219.300949,302.907013 220.395187,302.888245 
	C225.969193,302.792572 231.533539,302.197174 237.108261,302.059296 
	C241.275864,301.956207 241.517410,300.050934 240.412308,296.316742 
	C244.920074,295.518036 249.427841,294.719330 254.841446,293.969299 
	C256.669495,293.973999 258.676575,294.463257 260.283447,293.869476 
	C262.673798,292.986176 264.781342,291.337433 267.669708,289.697388 
	C282.809662,285.074951 297.220184,278.763245 311.196930,271.649536 
	C312.858398,271.532959 314.546173,271.560059 316.174286,271.261536 
	C317.995300,270.927643 319.762146,270.298462 321.552582,269.797791 
	C321.682922,269.838654 321.813263,269.879486 321.943604,269.920349 
	C324.289398,269.273834 326.635193,268.627319 329.013824,268.539642 
	C329.027039,268.725739 329.040283,268.911865 329.065826,269.870300 
	C327.761414,272.871307 326.044983,275.771393 325.277649,278.903961 
	C324.615326,281.607605 325.032837,284.575745 324.972992,287.427002 
	C327.288147,286.957153 329.744934,286.819763 331.873810,285.912720 
	C333.592896,285.180267 334.810150,283.356049 336.434692,282.300232 
	C342.247925,278.522064 343.541351,271.897552 346.465973,266.355591 
	C348.374603,262.738861 350.129456,258.761963 350.681519,254.770538 
	C351.622650,247.966278 351.563446,241.023682 352.434235,233.628601 
	C352.624420,232.034790 352.814606,230.440994 353.004822,228.847198 
	C351.309143,229.264801 349.613464,229.682404 347.081177,230.087631 
	C337.725128,229.717377 328.369110,229.347122 319.551270,228.434723 
	C325.047333,227.695374 330.543427,226.956024 336.039490,226.216675 
	C336.021271,225.810684 336.003052,225.404678 335.984833,224.998672 
	C333.753387,224.998672 331.513245,224.872665 329.292389,225.026001 
	C325.183777,225.309662 321.963623,224.756073 320.120453,220.144440 
	C319.485138,218.554886 316.258545,217.304184 314.131653,217.162796 
	C310.485870,216.920456 306.767181,218.482407 303.819000,214.556900 
	C303.148438,213.664032 300.093292,214.388062 298.176788,214.658722 
	C296.579926,214.884262 294.949493,215.344345 293.505432,216.051056 
	C291.952393,216.811111 290.599243,217.979630 289.158875,218.969925 
	C290.480377,220.247116 291.619659,221.874069 293.182404,222.688019 
	C294.377960,223.310730 296.248596,223.324112 297.576050,222.880981 
	C301.960175,221.417435 305.181274,223.319016 308.564636,226.110489 
	C305.729492,228.630508 303.249268,230.022369 300.054291,226.674911 
	C297.840393,224.355362 295.141449,224.330612 292.455536,226.327011 
	C292.978821,228.492981 293.464447,230.503067 293.918579,232.382874 
	C295.350647,232.972656 296.697571,233.527374 297.578613,234.538208 
	C295.291901,237.106781 293.005188,239.675354 290.527588,242.458374 
	C292.191315,243.790451 293.587036,244.907898 295.234436,246.722198 
	C297.157745,247.150040 299.081055,247.577881 301.042603,248.715485 
	C302.363739,250.804291 303.684875,252.893097 304.368958,255.319672 
	C295.918762,257.901428 287.468597,260.483154 278.966736,262.274658 
	C277.501404,256.873657 273.747650,259.377350 270.619354,259.899139 
	C266.767212,260.541687 266.186432,262.290802 268.493073,265.518860 
	C259.339355,267.729919 250.185638,269.940979 240.115829,272.103943 
	C231.859528,272.417694 223.603470,272.737579 215.346878,273.043365 
	C207.256622,273.342987 199.163101,273.898865 191.076370,273.816437 
	C186.367950,273.768433 181.670029,272.687500 176.981384,271.257324 
	C176.054092,265.294037 174.519989,264.044617 168.299850,265.252899 
	C165.220184,265.851166 162.794205,265.770935 160.984756,262.240387 
	C160.319702,261.156189 159.654648,260.071991 158.729950,258.268036 
	C157.550079,257.845367 156.376892,257.080444 155.189224,257.057281 
	C148.931717,256.935028 142.641174,257.373932 136.419708,256.885101 
	C131.175018,256.472961 127.961128,258.428345 125.324844,262.756683 
	C121.747803,261.527405 118.116043,260.434662 114.609344,259.029816 
	C111.211884,257.668701 107.978294,255.903320 104.605392,254.474457 
	C102.303116,253.499146 99.926788,252.630264 97.505730,252.025391 
	C95.573967,251.542770 93.386208,251.907333 91.555222,251.234360 
	C87.208046,249.636505 82.892128,247.866959 78.772415,245.758728 
	C73.533508,243.077759 68.335701,240.245270 63.421806,237.018723 
	C57.528755,233.149246 53.989677,233.214539 50.543736,238.487930 
	C51.364204,240.657333 52.184673,242.826736 52.330257,244.984314 
	C51.296700,245.175613 50.263142,245.366928 49.229580,245.558228 
	C49.605690,246.401413 49.831203,247.364517 50.388092,248.063736 
	C51.701427,249.712845 53.063000,251.357681 54.621521,252.764465 
	C55.542881,253.596146 57.217525,254.707169 57.941994,254.371796 
	C58.931076,253.913925 59.337814,252.198120 60.498451,251.006393 
M96.999527,118.187202 
	C96.881027,117.060959 96.762535,115.934708 96.663887,114.997169 
	C92.205688,114.997169 88.010452,114.997169 85.262978,114.997169 
	C81.565475,116.716255 78.991608,118.304741 76.192535,119.120461 
	C72.214172,120.279846 69.243385,123.085167 67.963593,126.312332 
	C66.384216,130.294937 66.422096,134.988861 66.194511,139.397781 
	C66.119659,140.847900 67.035400,143.290802 68.108559,143.707397 
	C75.693138,146.651749 77.953156,145.446960 80.586487,137.763565 
	C80.694145,137.449432 80.819847,137.141495 81.468262,136.296753 
	C88.651222,135.205719 95.816048,133.388275 103.021751,133.208344 
	C111.939430,132.985672 117.221741,136.925110 118.771973,144.113983 
	C119.871986,149.215042 119.867111,154.554352 120.354507,159.777695 
	C119.221809,159.894592 118.883919,159.990097 118.563026,159.949890 
	C117.908615,159.867889 117.261734,159.720642 116.614586,159.586594 
	C105.985107,157.384796 95.519676,155.335754 84.620743,159.141144 
	C71.974739,163.556503 64.387543,173.609039 64.878304,187.013519 
	C65.357094,200.090958 72.221863,208.690811 85.560631,211.333466 
	C95.652428,213.332840 105.333344,211.285263 113.803200,205.044754 
	C116.278252,203.221130 118.559570,201.134567 121.045395,199.072525 
	C122.772179,201.760437 124.272461,204.127121 125.804970,206.472733 
	C127.475082,209.028992 129.582001,210.667618 133.322922,210.171494 
	C136.333008,209.658997 139.343079,209.146500 142.833755,208.552170 
	C143.287537,205.483139 144.512665,202.015228 144.071518,198.774139 
	C143.661667,195.762955 144.114685,193.063614 144.320175,190.194839 
	C144.439499,188.528976 143.299332,186.744141 142.610748,185.059937 
	C142.198563,184.051788 141.101517,183.135406 141.099640,182.176254 
	C141.075928,170.049820 141.273804,157.922729 141.213699,145.796783 
	C141.201416,143.320694 140.521820,140.803574 139.856827,138.385971 
	C138.970139,135.162491 137.942673,131.957809 136.671219,128.870422 
	C136.196869,127.718559 135.029022,126.603531 133.895294,126.016716 
	C129.824951,123.909882 125.285408,122.527634 121.601364,119.915184 
	C118.764221,117.903313 117.480980,113.682983 112.816284,114.546097 
	C108.981789,115.255592 105.092651,115.693459 101.289856,116.533089 
	C100.395500,116.730560 99.751297,118.061043 98.341835,119.054756 
	C97.895645,119.013954 97.449463,118.973152 96.999527,118.187202 
M168.372787,140.440674 
	C168.558807,135.054550 168.953476,129.660980 168.761536,124.288353 
	C168.721313,123.162735 166.662109,121.443794 165.288910,121.153252 
	C160.771210,120.197433 156.102478,119.121880 151.569229,119.392067 
	C148.937195,119.548943 146.286880,122.002258 144.073242,123.917412 
	C143.719757,124.223221 145.623428,127.137970 146.808441,129.316833 
	C146.861832,129.881958 146.915237,130.447067 146.631683,131.368851 
	C147.009399,131.916199 147.387100,132.463531 147.996353,133.478195 
	C147.985809,133.651718 147.975281,133.825241 147.320465,134.171844 
	C143.541611,139.067978 146.790421,143.352859 148.428726,147.195862 
	C147.487930,148.673386 145.977890,150.035080 146.234222,150.819702 
	C147.262863,153.968231 148.877014,156.921387 150.202621,159.978043 
	C151.834717,163.741348 154.426544,167.457504 154.721039,171.336960 
	C155.076508,176.019775 156.537933,177.630844 161.396927,177.605621 
	C163.936096,186.040161 166.679337,194.420563 168.936768,202.929855 
	C170.258530,207.912231 172.832291,210.400314 178.082336,209.805267 
	C179.232803,209.674881 180.419510,209.692566 181.574371,209.801987 
	C186.970627,210.313324 189.575226,207.978653 190.776077,202.562592 
	C193.863007,188.640015 197.507919,174.841156 201.501984,160.760666 
	C204.318832,161.170807 207.135681,161.580933 210.331741,162.673843 
	C213.549255,175.751892 216.804031,188.820908 219.969849,201.911453 
	C221.775879,209.379272 222.206924,209.783310 230.053299,209.783463 
	C230.719833,209.783478 231.398499,209.700226 232.051010,209.795761 
	C237.737152,210.628296 240.343857,207.854752 241.946640,202.567245 
	C249.086197,179.014481 256.528107,155.553299 263.878693,132.064636 
	C267.247070,121.301086 267.071472,121.153160 255.546799,121.382133 
	C251.244629,121.467606 248.754852,123.121758 247.825150,127.442894 
	C246.776749,132.315765 245.364929,137.110367 244.114594,141.939880 
	C239.962265,157.978714 235.811478,174.017929 231.324280,191.354416 
	C230.567017,189.091782 230.148361,188.103867 229.904907,187.074539 
	C225.309433,167.644745 220.750610,148.206268 216.147385,128.778320 
	C214.420731,121.490997 214.169083,121.373703 204.156372,121.468628 
	C197.069183,121.535820 196.705414,121.912476 194.997467,129.157196 
	C190.299652,149.084305 185.541458,168.997177 180.807175,188.915695 
	C180.415527,188.960342 180.023880,189.005005 179.632233,189.049652 
	C175.702942,173.049515 171.773651,157.049393 168.372787,140.440674 
M275.968689,206.505936 
	C283.003815,208.352005 289.942993,210.951981 297.097198,211.862503 
	C307.126495,213.138931 317.095062,211.985428 325.898346,206.172180 
	C334.414734,200.548355 338.425354,192.529861 337.659698,182.393845 
	C336.935944,172.812363 331.527069,166.488586 322.827057,162.847824 
	C320.225525,161.759140 317.528442,160.898712 314.874725,159.934753 
	C308.663818,157.678650 302.404785,155.545059 296.256989,153.128372 
	C291.458099,151.241913 289.496033,147.381882 290.097168,142.361069 
	C290.722168,137.141083 294.224091,134.227951 299.065491,133.757782 
	C304.990936,133.182327 311.039307,133.079788 316.964783,133.587265 
	C320.668396,133.904465 324.197235,135.926407 327.898895,136.768692 
	C329.365051,137.102325 331.926208,136.868088 332.543243,135.935745 
	C334.894775,132.382370 332.544128,125.137093 328.469849,123.520142 
	C315.368896,118.320801 302.043640,116.684242 288.680847,122.564392 
	C276.909515,127.744232 271.101440,139.057587 274.210785,151.050262 
	C276.681427,160.579376 283.507416,166.036911 292.544861,169.072113 
	C299.789093,171.505035 307.124573,173.704254 314.239197,176.470963 
	C318.705658,178.207870 321.435272,181.613922 321.148804,186.916183 
	C320.862976,192.205627 317.690887,195.478806 313.202026,196.651825 
	C308.148346,197.972427 302.652740,198.876282 297.526184,198.323013 
	C291.012360,197.620056 284.705841,195.135223 278.243805,193.720993 
	C276.511383,193.341843 272.972870,193.870224 272.919220,194.307709 
	C272.413910,198.427658 270.790771,202.993164 275.968689,206.505936 
M343.688599,283.357605 
	C345.292114,283.058624 347.952545,283.209290 348.305969,282.378479 
	C349.486145,279.604462 349.840057,276.478912 350.510529,273.488037 
	C349.299713,273.584869 347.301971,273.278442 347.010834,273.846588 
	C345.549866,276.697449 344.535309,279.777130 343.688599,283.357605 
M342.861389,225.037033 
	C342.149261,225.598114 341.437134,226.159180 340.725006,226.720261 
	C341.700470,227.072845 342.675964,227.425415 343.651428,227.778000 
	C343.582092,226.888962 343.512726,225.999908 342.861389,225.037033 
z"/>
<path fill="#F6F8F8" opacity="1.000000" stroke="none" 
	d="
M146.968628,131.012192 
	C146.915237,130.447067 146.861832,129.881958 146.592346,128.632812 
	C145.243439,121.700432 145.389786,121.526054 151.762482,121.515991 
	C153.252380,121.513641 154.746750,121.580498 156.231339,121.489601 
	C160.740982,121.213509 163.248016,123.143456 164.179688,127.703094 
	C165.101212,132.213120 166.599228,136.605347 167.844360,141.049255 
	C171.773651,157.049393 175.702942,173.049515 179.632233,189.049652 
	C180.023880,189.005005 180.415527,188.960342 180.807175,188.915695 
	C185.541458,168.997177 190.299652,149.084305 194.997467,129.157196 
	C196.705414,121.912476 197.069183,121.535820 204.156372,121.468628 
	C214.169083,121.373703 214.420731,121.490997 216.147385,128.778320 
	C220.750610,148.206268 225.309433,167.644745 229.904907,187.074539 
	C230.148361,188.103867 230.567017,189.091782 231.324280,191.354416 
	C235.811478,174.017929 239.962265,157.978714 244.114594,141.939880 
	C245.364929,137.110367 246.776749,132.315765 247.825150,127.442894 
	C248.754852,123.121758 251.244629,121.467606 255.546799,121.382133 
	C267.071472,121.153160 267.247070,121.301086 263.878693,132.064636 
	C256.528107,155.553299 249.086197,179.014481 241.946640,202.567245 
	C240.343857,207.854752 237.737152,210.628296 232.051010,209.795761 
	C231.398499,209.700226 230.719833,209.783478 230.053299,209.783463 
	C222.206924,209.783310 221.775879,209.379272 219.969849,201.911453 
	C216.804031,188.820908 213.549255,175.751892 210.173676,161.928604 
	C208.585190,155.125092 207.154785,149.066833 205.724380,143.008560 
	C205.420013,142.969635 205.115631,142.930695 204.811264,142.891754 
	C203.517441,148.925446 202.223633,154.959152 200.929810,160.992859 
	C197.507919,174.841156 193.863007,188.640015 190.776077,202.562592 
	C189.575226,207.978653 186.970627,210.313324 181.574371,209.801987 
	C180.419510,209.692566 179.232803,209.674881 178.082336,209.805267 
	C172.832291,210.400314 170.258530,207.912231 168.936768,202.929855 
	C166.679337,194.420563 163.936096,186.040161 161.169952,176.914200 
	C156.616882,162.148102 152.290817,148.073441 147.964737,133.998764 
	C147.975281,133.825241 147.985809,133.651718 147.893585,132.965103 
	C147.516739,131.972076 147.242676,131.492142 146.968628,131.012192 
z"/>
<path fill="#F7F8F8" opacity="1.000000" stroke="none" 
	d="
M132.870453,209.678314 
	C129.582001,210.667618 127.475082,209.028992 125.804970,206.472733 
	C124.272461,204.127121 122.772179,201.760437 121.045395,199.072525 
	C118.559570,201.134567 116.278252,203.221130 113.803200,205.044754 
	C105.333344,211.285263 95.652428,213.332840 85.560631,211.333466 
	C72.221863,208.690811 65.357094,200.090958 64.878304,187.013519 
	C64.387543,173.609039 71.974739,163.556503 84.620743,159.141144 
	C95.519676,155.335754 105.985107,157.384796 116.614586,159.586594 
	C117.261734,159.720642 117.908615,159.867889 118.563026,159.949890 
	C118.883919,159.990097 119.221809,159.894592 120.354507,159.777695 
	C119.867111,154.554352 119.871986,149.215042 118.771973,144.113983 
	C117.221741,136.925110 111.939430,132.985672 103.021751,133.208344 
	C95.816048,133.388275 88.651222,135.205719 80.812721,136.576904 
	C78.282036,137.521500 76.442055,138.519302 74.518234,138.722260 
	C73.408524,138.839310 71.497551,137.964310 71.090080,137.034821 
	C68.880302,131.994034 71.144981,126.270706 76.421501,124.531548 
	C83.164688,122.308952 90.132347,120.767403 97.003273,118.932343 
	C97.449463,118.973152 97.895645,119.013954 99.121002,119.034012 
	C105.626518,119.633507 111.498734,119.653458 117.048103,121.001991 
	C127.797028,123.614044 133.682343,131.045578 134.965561,141.976868 
	C130.737869,143.827530 131.929001,146.749435 132.730942,149.673401 
	C133.037964,150.792908 133.182251,152.082840 132.946472,153.199173 
	C132.459076,155.506561 131.084457,157.755203 131.106339,160.018036 
	C131.179947,167.631973 131.397842,175.274994 132.218445,182.835480 
	C132.524826,185.658218 134.641632,188.284470 136.075500,191.189850 
	C136.531128,191.714951 136.844208,192.050507 137.221893,192.679443 
	C137.493347,193.311691 137.700180,193.650574 138.113800,194.290314 
	C143.051117,204.217072 142.311661,202.948502 134.764114,208.120590 
	C134.092453,208.580826 133.499786,209.156326 132.870453,209.678314 
M115.242073,192.064499 
	C116.762688,191.529510 119.224907,191.346542 119.586861,190.378387 
	C120.153076,188.863861 119.298401,186.818115 119.033180,184.215759 
	C119.407600,182.143936 119.782028,180.072113 120.947975,177.990768 
	C123.029305,177.570358 125.187103,177.360641 127.161034,176.644287 
	C128.212387,176.262756 129.527710,175.086029 129.662460,174.120132 
	C129.803467,173.109665 128.959442,171.456284 128.046463,170.891708 
	C124.088303,168.444092 119.922050,168.609177 114.909523,170.635529 
	C109.791695,170.249863 104.677254,169.617279 99.555099,169.547028 
	C94.293556,169.474838 89.730690,171.147400 85.877396,175.238892 
	C82.108208,179.241074 81.674454,183.602890 82.613197,188.492981 
	C83.573692,193.496399 86.351158,196.997269 91.482681,198.064713 
	C100.197762,199.877625 107.833344,197.413727 115.242073,192.064499 
z"/>
<path fill="#F6F7F7" opacity="1.000000" stroke="none" 
	d="
M275.635376,206.324829 
	C270.790771,202.993164 272.413910,198.427658 272.919220,194.307709 
	C272.972870,193.870224 276.511383,193.341843 278.243805,193.720993 
	C284.705841,195.135223 291.012360,197.620056 297.526184,198.323013 
	C302.652740,198.876282 308.148346,197.972427 313.202026,196.651825 
	C317.690887,195.478806 320.862976,192.205627 321.148804,186.916183 
	C321.435272,181.613922 318.705658,178.207870 314.239197,176.470963 
	C307.124573,173.704254 299.789093,171.505035 292.544861,169.072113 
	C283.507416,166.036911 276.681427,160.579376 274.210785,151.050262 
	C271.101440,139.057587 276.909515,127.744232 288.680847,122.564392 
	C302.043640,116.684242 315.368896,118.320801 328.469849,123.520142 
	C332.544128,125.137093 334.894775,132.382370 332.543243,135.935745 
	C331.926208,136.868088 329.365051,137.102325 327.898895,136.768692 
	C324.197235,135.926407 320.668396,133.904465 316.964783,133.587265 
	C311.039307,133.079788 304.990936,133.182327 299.065491,133.757782 
	C294.224091,134.227951 290.722168,137.141083 290.097168,142.361069 
	C289.496033,147.381882 291.458099,151.241913 296.256989,153.128372 
	C302.404785,155.545059 308.663818,157.678650 314.874725,159.934753 
	C317.528442,160.898712 320.225525,161.759140 322.827057,162.847824 
	C331.527069,166.488586 336.935944,172.812363 337.659698,182.393845 
	C338.425354,192.529861 334.414734,200.548355 325.898346,206.172180 
	C317.095062,211.985428 307.126495,213.138931 297.097198,211.862503 
	C289.942993,210.951981 283.003815,208.352005 275.635376,206.324829 
z"/>
<path fill="#46300D" opacity="1.000000" stroke="none" 
	d="
M156.011765,296.994873 
	C152.746216,295.986298 149.479309,294.982025 146.215424,293.968079 
	C141.826599,292.604614 137.374893,291.411346 133.065735,289.830109 
	C123.067085,286.161041 113.087975,282.426056 103.217163,278.430695 
	C100.903641,277.494263 99.051605,275.417725 97.006424,273.390747 
	C97.025589,272.915802 97.300171,272.616577 97.657684,272.686646 
	C99.955536,273.673859 101.844658,274.725708 103.844574,275.486206 
	C115.857300,280.054443 127.895493,284.555725 140.177719,289.340820 
	C142.068100,289.990234 143.705933,290.378326 145.601746,290.820374 
	C146.210007,290.881683 146.560257,290.889099 147.257324,291.104248 
	C149.456757,291.646942 151.309402,291.981903 153.290268,292.438660 
	C153.418503,292.560425 153.752350,292.642792 153.752350,292.642792 
	C153.752350,292.642792 154.080429,292.541046 154.441681,292.734650 
	C156.078415,293.259796 157.338928,293.672424 158.631607,293.910889 
	C184.492188,298.681061 210.427979,299.285614 236.376511,294.836975 
	C254.543396,291.722473 272.273865,286.990784 289.411011,279.081604 
	C293.520782,277.221130 297.494049,275.790375 301.001251,273.609955 
	C307.861664,269.344910 314.461945,264.661438 321.098877,260.123047 
	C321.027893,260.094971 321.147797,260.189545 321.504364,260.126801 
	C325.226288,256.308685 324.550201,254.497269 319.093079,252.239075 
	C319.753235,251.352905 320.359009,250.730362 321.221252,250.329285 
	C323.281464,251.712173 325.085144,252.873596 326.857056,254.345673 
	C326.559418,255.444031 326.293579,256.231720 325.874695,257.299988 
	C325.484222,258.387817 325.246796,259.195099 324.849976,260.308777 
	C320.126709,264.072876 315.562805,267.530518 310.998871,270.988190 
	C297.220184,278.763245 282.809662,285.074951 266.931885,289.844666 
	C262.107880,291.301483 258.021759,292.611053 253.935608,293.920593 
	C249.427841,294.719330 244.920074,295.518036 239.772903,296.648743 
	C231.759705,298.005646 224.385925,299.030518 217.012131,300.055359 
	C202.305725,299.713531 187.599335,299.371704 172.075531,298.878052 
	C166.175995,298.149170 161.093887,297.572021 156.011765,296.994873 
z"/>
<path fill="#2D3641" opacity="1.000000" stroke="none" 
	d="
M137.157288,192.386063 
	C136.844208,192.050507 136.531128,191.714951 136.118958,190.720337 
	C136.169052,178.945572 136.448242,167.829407 136.408066,156.714386 
	C136.390182,151.772751 135.728241,146.833450 135.358643,141.893082 
	C133.682343,131.045578 127.797028,123.614044 117.048103,121.001991 
	C111.498734,119.653458 105.626518,119.633507 99.446091,118.941788 
	C99.751297,118.061043 100.395500,116.730560 101.289856,116.533089 
	C105.092651,115.693459 108.981789,115.255592 112.816284,114.546097 
	C117.480980,113.682983 118.764221,117.903313 121.601364,119.915184 
	C125.285408,122.527634 129.824951,123.909882 133.895294,126.016716 
	C135.029022,126.603531 136.196869,127.718559 136.671219,128.870422 
	C137.942673,131.957809 138.970139,135.162491 139.856827,138.385971 
	C140.521820,140.803574 141.201416,143.320694 141.213699,145.796783 
	C141.273804,157.922729 141.075928,170.049820 141.099640,182.176254 
	C141.101517,183.135406 142.198563,184.051788 142.610748,185.059937 
	C143.299332,186.744141 144.439499,188.528976 144.320175,190.194839 
	C144.114685,193.063614 143.661667,195.762955 144.071518,198.774139 
	C144.512665,202.015228 143.287537,205.483139 142.833755,208.552170 
	C139.343079,209.146500 136.333008,209.658997 133.096680,209.924896 
	C133.499786,209.156326 134.092453,208.580826 134.764114,208.120590 
	C142.311661,202.948502 143.051117,204.217072 138.119232,193.971344 
	C137.664352,193.029709 137.410828,192.707886 137.157288,192.386063 
z"/>
<path fill="#423118" opacity="1.000000" stroke="none" 
	d="
M51.032207,238.006989 
	C53.989677,233.214539 57.528755,233.149246 63.421806,237.018723 
	C68.335701,240.245270 73.533508,243.077759 78.772415,245.758728 
	C82.892128,247.866959 87.208046,249.636505 91.555222,251.234360 
	C93.386208,251.907333 95.573967,251.542770 97.505730,252.025391 
	C99.926788,252.630264 102.303116,253.499146 104.605392,254.474457 
	C107.978294,255.903320 111.211884,257.668701 114.609344,259.029816 
	C118.116043,260.434662 121.747803,261.527405 126.053253,262.970612 
	C130.001160,263.871582 133.214157,264.591125 136.441711,265.238007 
	C141.255310,266.202820 146.079163,267.116394 151.202408,268.282471 
	C154.655472,269.052704 157.804794,269.592255 161.107422,270.492279 
	C166.496277,271.258942 171.731827,271.665131 176.967392,272.071350 
	C181.670029,272.687500 186.367950,273.768433 191.076370,273.816437 
	C199.163101,273.898865 207.256622,273.342987 215.346878,273.043365 
	C223.603470,272.737579 231.859528,272.417694 240.582306,272.409973 
	C241.057419,272.904907 241.066055,273.093811 240.730957,273.486328 
	C217.195557,276.749390 193.995132,276.934601 170.753952,274.155212 
	C164.876007,273.452271 158.928299,273.332581 152.869873,272.867615 
	C152.727081,272.790344 152.406281,272.840698 152.245819,272.528320 
	C151.043839,271.848419 150.002319,271.480865 148.597336,270.962616 
	C131.571014,266.170410 114.908134,261.528900 97.964615,256.658051 
	C86.596451,251.463486 75.508949,246.498291 64.386253,241.494751 
	C64.351059,241.456421 64.248749,241.475494 64.054001,241.212906 
	C60.190289,239.503677 57.419525,234.578522 52.246647,238.015503 
	C51.679726,238.014999 51.355957,238.011856 51.032207,238.006989 
z"/>
<path fill="#4E3312" opacity="1.000000" stroke="none" 
	d="
M294.982727,246.025360 
	C293.587036,244.907898 292.191315,243.790451 290.527588,242.458374 
	C293.005188,239.675354 295.291901,237.106781 298.194031,234.297333 
	C302.206848,233.052292 305.604187,232.048141 309.361145,230.995590 
	C311.485077,230.325684 313.249420,229.704163 315.413574,229.082581 
	C316.879944,229.047318 317.946503,229.012085 319.013062,228.976868 
	C328.369110,229.347122 337.725128,229.717377 347.654480,230.350037 
	C349.100800,231.425156 349.973816,232.237885 350.998535,233.254486 
	C351.422516,233.654739 351.694794,233.851120 351.947083,234.066086 
	C351.927094,234.084671 351.924469,234.139191 351.924469,234.139191 
	C351.563446,241.023682 351.622650,247.966278 350.681519,254.770538 
	C350.129456,258.761963 348.374603,262.738861 346.465973,266.355591 
	C343.541351,271.897552 342.247925,278.522064 336.434692,282.300232 
	C334.810150,283.356049 333.592896,285.180267 331.873810,285.912720 
	C329.744934,286.819763 327.288147,286.957153 324.972961,287.427002 
	C325.032837,284.575745 324.615326,281.607605 325.277649,278.903961 
	C326.044983,275.771393 327.761414,272.871307 329.281708,269.185211 
	C330.359497,265.319458 331.221375,262.138794 332.052185,258.965912 
	C332.021118,258.973694 332.042664,258.912933 332.135559,258.535706 
	C332.672363,255.553665 333.623871,252.898468 333.371979,250.362808 
	C333.217957,248.812119 331.215637,247.445038 329.779175,245.981888 
	C329.338928,245.970490 329.162903,245.972687 328.679443,245.741608 
	C323.924744,245.060150 319.477417,244.611984 314.682831,244.144836 
	C313.224976,244.397400 312.114410,244.668961 310.565613,244.936005 
	C305.079193,245.296097 300.030945,245.660736 294.982727,246.025360 
M348.659302,251.886749 
	C349.152740,248.296371 349.695190,244.711899 350.127899,241.114227 
	C350.749329,235.947357 348.504303,232.606750 343.300018,232.120651 
	C336.248413,231.462036 329.120850,230.729156 322.083679,231.106415 
	C317.138519,231.371506 312.289703,233.433990 307.258392,234.500931 
	C307.258392,234.500931 307.040802,234.597610 306.265533,234.553146 
	C304.062592,235.654358 301.859650,236.755569 298.974701,238.035080 
	C297.396942,239.514282 295.819214,240.993484 294.241455,242.472672 
	C294.564301,242.960800 294.887115,243.448914 295.209930,243.937027 
	C297.473572,243.818893 299.736053,243.668961 302.001007,243.588318 
	C310.295380,243.292984 318.618134,242.473450 326.877991,242.888870 
	C335.689209,243.332001 337.428802,245.911377 335.438263,254.459854 
	C333.597076,262.366974 331.030670,270.105255 328.860809,277.948547 
	C328.860809,277.948547 328.848907,277.866364 328.296783,278.297028 
	C328.095459,278.747772 327.778046,279.182556 327.713348,279.652130 
	C327.462280,281.474670 327.291534,283.308289 327.090912,285.137787 
	C328.899719,284.358948 331.146790,284.021118 332.446136,282.729675 
	C340.855865,274.371277 346.241608,264.347900 348.659302,251.886749 
z"/>
<path fill="#202F40" opacity="1.000000" stroke="none" 
	d="
M309.001556,231.043976 
	C305.604187,232.048141 302.206848,233.052292 298.426971,234.069275 
	C296.697571,233.527374 295.350647,232.972656 293.918579,232.382874 
	C293.464447,230.503067 292.978821,228.492981 292.455536,226.327011 
	C295.141449,224.330612 297.840393,224.355362 300.054291,226.674911 
	C303.249268,230.022369 305.729492,228.630508 308.564636,226.110489 
	C305.181274,223.319016 301.960175,221.417435 297.576050,222.880981 
	C296.248596,223.324112 294.377960,223.310730 293.182404,222.688019 
	C291.619659,221.874069 290.480377,220.247116 289.158875,218.969940 
	C290.599243,217.979630 291.952393,216.811111 293.505432,216.051056 
	C294.949493,215.344345 296.579926,214.884262 298.176788,214.658722 
	C300.093292,214.388062 303.148438,213.664032 303.819000,214.556900 
	C306.767181,218.482407 310.485870,216.920456 314.131653,217.162796 
	C316.258545,217.304184 319.485138,218.554886 320.120453,220.144440 
	C321.963623,224.756073 325.183777,225.309662 329.292389,225.026001 
	C331.513245,224.872665 333.753387,224.998672 335.984833,224.998672 
	C336.003052,225.404678 336.021271,225.810684 336.039490,226.216675 
	C330.543427,226.956024 325.047333,227.695374 319.282166,228.705795 
	C317.946503,229.012085 316.879944,229.047318 315.395386,228.740387 
	C312.809723,225.903427 310.523865,226.915466 309.001556,231.043976 
z"/>
<path fill="#223038" opacity="1.000000" stroke="none" 
	d="
M150.898666,268.051758 
	C146.079163,267.116394 141.255310,266.202820 136.441711,265.238007 
	C133.214157,264.591125 130.001160,263.871582 126.386795,263.110229 
	C127.961128,258.428345 131.175018,256.472961 136.419708,256.885101 
	C142.641174,257.373932 148.931717,256.935028 155.189224,257.057281 
	C156.376892,257.080444 157.550079,257.845367 158.414124,258.631317 
	C153.847565,259.430206 149.596832,259.865814 145.346115,260.301453 
	C145.361206,261.031525 145.376297,261.761597 145.391388,262.491669 
	C150.499039,263.555908 155.794464,262.749817 160.987289,262.965576 
	C162.794205,265.770935 165.220184,265.851166 168.299850,265.252899 
	C174.519989,264.044617 176.054092,265.294037 176.974396,271.664337 
	C171.731827,271.665131 166.496277,271.258942 161.091949,270.087280 
	C158.140472,264.488098 154.326797,267.791473 150.898666,268.051758 
z"/>
<path fill="#2D3641" opacity="1.000000" stroke="none" 
	d="
M97.001404,118.559769 
	C90.132347,120.767403 83.164688,122.308952 76.421501,124.531548 
	C71.144981,126.270706 68.880302,131.994034 71.090080,137.034821 
	C71.497551,137.964310 73.408524,138.839310 74.518234,138.722260 
	C76.442055,138.519302 78.282036,137.521500 80.547165,136.843872 
	C80.819847,137.141495 80.694145,137.449432 80.586487,137.763565 
	C77.953156,145.446960 75.693138,146.651749 68.108559,143.707397 
	C67.035400,143.290802 66.119659,140.847900 66.194511,139.397781 
	C66.422096,134.988861 66.384216,130.294937 67.963593,126.312332 
	C69.243385,123.085167 72.214172,120.279846 76.192535,119.120461 
	C78.991608,118.304741 81.565475,116.716255 85.262978,114.997169 
	C88.010452,114.997169 92.205688,114.997169 96.663887,114.997169 
	C96.762535,115.934708 96.881027,117.060959 97.001404,118.559769 
z"/>
<path fill="#2D3641" opacity="1.000000" stroke="none" 
	d="
M147.642609,134.085297 
	C152.290817,148.073441 156.616882,162.148102 160.937958,176.612732 
	C156.537933,177.630844 155.076508,176.019775 154.721039,171.336960 
	C154.426544,167.457504 151.834717,163.741348 150.202621,159.978043 
	C148.877014,156.921387 147.262863,153.968231 146.234222,150.819702 
	C145.977890,150.035080 147.487930,148.673386 148.428726,147.195862 
	C146.790421,143.352859 143.541611,139.067978 147.642609,134.085297 
z"/>
<path fill="#46300D" opacity="1.000000" stroke="none" 
	d="
M241.074692,273.282715 
	C241.066055,273.093811 241.057419,272.904907 241.040359,272.434021 
	C250.185638,269.940979 259.339355,267.729919 269.167786,265.283478 
	C272.901154,264.387024 275.959778,263.725952 279.018402,263.064911 
	C287.468597,260.483154 295.918762,257.901428 305.022430,255.151642 
	C306.121094,254.947998 306.566284,254.912415 307.226349,254.786331 
	C307.712646,254.530441 307.936340,254.315399 308.419434,254.012146 
	C309.485718,253.657120 310.244904,253.340668 311.342438,252.982315 
	C313.446594,252.901199 315.212372,252.861984 316.691772,253.006317 
	C314.863678,254.053207 313.321991,254.916550 311.828979,255.845245 
	C311.877594,255.910583 311.828491,255.755264 311.441956,255.791718 
	C304.368927,258.211365 297.682434,260.594574 290.710938,262.968506 
	C289.920837,263.192413 289.415741,263.425629 288.502228,263.669373 
	C286.973755,263.960968 285.863007,264.288239 284.732269,264.515961 
	C270.181427,267.446503 255.627686,270.362823 241.074692,273.282715 
z"/>
<path fill="#2D3641" opacity="1.000000" stroke="none" 
	d="
M168.108582,140.744965 
	C166.599228,136.605347 165.101212,132.213120 164.179688,127.703094 
	C163.248016,123.143456 160.740982,121.213509 156.231339,121.489601 
	C154.746750,121.580498 153.252380,121.513641 151.762482,121.515991 
	C145.389786,121.526054 145.243439,121.700432 146.429932,128.397705 
	C145.623428,127.137970 143.719757,124.223221 144.073242,123.917412 
	C146.286880,122.002258 148.937195,119.548943 151.569229,119.392067 
	C156.102478,119.121880 160.771210,120.197433 165.288910,121.153252 
	C166.662109,121.443794 168.721313,123.162735 168.761536,124.288353 
	C168.953476,129.660980 168.558807,135.054550 168.108582,140.744965 
z"/>
<path fill="#1B3144" opacity="1.000000" stroke="none" 
	d="
M217.044067,300.438354 
	C224.385925,299.030518 231.759705,298.005646 239.555481,296.964233 
	C241.517410,300.050934 241.275864,301.956207 237.108261,302.059296 
	C231.533539,302.197174 225.969193,302.792572 220.395187,302.888245 
	C219.300949,302.907013 218.183014,301.545959 217.044067,300.438354 
z"/>
<path fill="#2F363E" opacity="1.000000" stroke="none" 
	d="
M201.215897,160.876770 
	C202.223633,154.959152 203.517441,148.925446 204.811264,142.891754 
	C205.115631,142.930695 205.420013,142.969635 205.724380,143.008560 
	C207.154785,149.066833 208.585190,155.125092 209.984070,161.587219 
	C207.135681,161.580933 204.318832,161.170807 201.215897,160.876770 
z"/>
<path fill="#212E4C" opacity="1.000000" stroke="none" 
	d="
M311.097900,271.318848 
	C315.562805,267.530518 320.126709,264.072876 325.181458,260.307739 
	C326.114471,259.999390 326.556610,259.998474 327.016418,260.375671 
	C327.683044,263.162781 328.332001,265.571808 328.980957,267.980804 
	C326.635193,268.627319 324.289398,269.273834 321.943604,269.920349 
	C321.813263,269.879486 321.682922,269.838654 321.552582,269.797791 
	C319.762146,270.298462 317.995300,270.927643 316.174286,271.261536 
	C314.546173,271.560059 312.858398,271.532959 311.097900,271.318848 
z"/>
<path fill="#2B2D30" opacity="1.000000" stroke="none" 
	d="
M316.978149,252.822784 
	C315.212372,252.861984 313.446594,252.901199 311.312317,252.603699 
	C307.630676,250.846542 304.317505,249.426117 301.004364,248.005707 
	C299.081055,247.577881 297.157745,247.150040 295.108582,246.373779 
	C300.030945,245.660736 305.079193,245.296097 310.385193,245.148911 
	C310.152985,245.749191 309.662964,246.132019 308.919312,246.712997 
	C313.137238,247.901749 317.050995,249.004776 320.964752,250.107819 
	C320.359009,250.730362 319.753235,251.352905 318.760620,252.353668 
	C317.908600,252.762161 317.443359,252.792465 316.978149,252.822784 
z"/>
<path fill="#212E4C" opacity="1.000000" stroke="none" 
	d="
M155.861679,297.328186 
	C161.093887,297.572021 166.175995,298.149170 171.614136,298.903839 
	C171.431992,299.985657 170.990677,301.589783 170.339859,301.679871 
	C166.309311,302.237579 162.218964,302.810333 158.173950,302.665680 
	C155.270462,302.561829 154.428482,300.378082 155.861679,297.328186 
z"/>
<path fill="#423118" opacity="1.000000" stroke="none" 
	d="
M84.801125,266.195221 
	C81.734077,264.835632 78.644051,263.525055 75.606621,262.102234 
	C72.721008,260.750549 69.650581,259.611572 67.107788,257.764526 
	C64.877350,256.144379 63.265873,253.672119 61.391312,251.074432 
	C61.938896,250.383408 62.476166,250.194199 63.306305,250.165543 
	C69.383018,254.247223 75.166862,258.168335 80.973984,262.056458 
	C80.997246,262.023468 80.923882,262.057220 81.043930,262.356018 
	C82.529312,263.667572 83.894646,264.680389 85.146225,265.819580 
	C85.032455,265.945953 84.801125,266.195221 84.801125,266.195221 
z"/>
<path fill="#223038" opacity="1.000000" stroke="none" 
	d="
M328.997375,268.260223 
	C328.332001,265.571808 327.683044,263.162781 327.008667,260.048340 
	C326.664703,258.568420 326.346222,257.793945 326.027710,257.019440 
	C326.293579,256.231720 326.559418,255.444031 327.139648,254.332336 
	C327.641846,254.002258 327.829590,253.996185 328.234802,254.215607 
	C328.976868,255.104111 329.501526,255.767151 330.026184,256.430176 
	C330.536133,256.272095 331.046112,256.114014 331.556061,255.955933 
	C331.051849,252.635788 330.547607,249.315643 330.043396,245.995499 
	C331.215637,247.445038 333.217957,248.812119 333.371979,250.362808 
	C333.623871,252.898468 332.672363,255.553665 332.045715,258.594177 
	C331.862976,259.029877 331.849304,259.282959 331.849304,259.282959 
	C331.849304,259.282959 332.083252,258.958130 332.083252,258.958130 
	C331.221375,262.138794 330.359497,265.319458 329.275574,268.799072 
	C329.040283,268.911865 329.027039,268.725739 328.997375,268.260223 
z"/>
<path fill="#1C332F" opacity="1.000000" stroke="none" 
	d="
M343.526245,283.067017 
	C344.535309,279.777130 345.549866,276.697449 347.010834,273.846588 
	C347.301971,273.278442 349.299713,273.584869 350.510529,273.488037 
	C349.840057,276.478912 349.486145,279.604462 348.305969,282.378479 
	C347.952545,283.209290 345.292114,283.058624 343.526245,283.067017 
z"/>
<path fill="#212E4C" opacity="1.000000" stroke="none" 
	d="
M160.986023,262.602966 
	C155.794464,262.749817 150.499039,263.555908 145.391388,262.491669 
	C145.376297,261.761597 145.361206,261.031525 145.346115,260.301453 
	C149.596832,259.865814 153.847565,259.430206 158.543945,258.991211 
	C159.654648,260.071991 160.319702,261.156189 160.986023,262.602966 
z"/>
<path fill="#212E4C" opacity="1.000000" stroke="none" 
	d="
M278.992554,262.669800 
	C275.959778,263.725952 272.901154,264.387024 269.436523,265.048157 
	C266.186432,262.290802 266.767212,260.541687 270.619354,259.899139 
	C273.747650,259.377350 277.501404,256.873657 278.992554,262.669800 
z"/>
<path fill="#212E4C" opacity="1.000000" stroke="none" 
	d="
M59.994202,251.021591 
	C59.337814,252.198120 58.931076,253.913925 57.941994,254.371796 
	C57.217525,254.707169 55.542881,253.596146 54.621521,252.764465 
	C53.063000,251.357681 51.701427,249.712845 50.388092,248.063736 
	C49.831203,247.364517 49.605690,246.401413 49.229580,245.558228 
	C50.263142,245.366928 51.296700,245.175613 52.921234,245.124908 
	C54.011742,245.833481 54.511272,246.401443 55.137619,247.174866 
	C55.467976,247.637131 55.716900,247.837555 56.007904,247.989899 
	C56.004604,247.998169 56.020298,247.981232 56.171768,248.257843 
	C57.203049,249.028275 58.082859,249.522095 59.169586,250.144989 
	C59.637638,250.477585 59.843540,250.726761 59.994202,251.021591 
z"/>
<path fill="#46300D" opacity="1.000000" stroke="none" 
	d="
M55.010811,246.969406 
	C54.511272,246.401443 54.011742,245.833481 53.258675,245.130829 
	C52.184673,242.826736 51.364204,240.657333 50.787971,238.247467 
	C51.355957,238.011856 51.679726,238.014999 52.283287,238.394653 
	C56.046516,242.516891 59.529968,246.260925 63.013428,250.004974 
	C62.476166,250.194199 61.938896,250.383408 61.202087,250.780945 
	C60.834522,250.994980 60.666485,251.000687 60.246326,251.013992 
	C59.843540,250.726761 59.637638,250.477585 59.021553,249.866928 
	C57.784500,248.966949 56.902401,248.474091 56.020298,247.981232 
	C56.020298,247.981232 56.004604,247.998169 55.883106,247.783264 
	C55.555805,247.312973 55.305538,247.113327 55.010811,246.969406 
z"/>
<path fill="#212E4C" opacity="1.000000" stroke="none" 
	d="
M301.023499,248.360596 
	C304.317505,249.426117 307.630676,250.846542 310.973938,252.645599 
	C310.244904,253.340668 309.485718,253.657120 308.202759,254.104111 
	C307.406494,254.396774 307.183990,254.610840 307.011475,254.876816 
	C306.566284,254.912415 306.121094,254.947998 305.340942,254.982742 
	C303.684875,252.893097 302.363739,250.804291 301.023499,248.360596 
z"/>
<path fill="#423118" opacity="1.000000" stroke="none" 
	d="
M96.888733,273.065796 
	C92.848007,271.086548 88.944145,268.957336 84.920700,266.511658 
	C84.801125,266.195221 85.032455,265.945953 85.472321,265.939087 
	C88.211823,267.041229 90.511459,268.150208 92.851364,269.257629 
	C92.891624,269.256073 92.826332,269.208801 92.973816,269.486511 
	C94.402252,270.424896 95.683197,271.085571 97.056473,271.960632 
	C97.148788,272.174988 97.300171,272.616577 97.300171,272.616577 
	C97.300171,272.616577 97.025589,272.915802 96.888733,273.065796 
z"/>
<path fill="#2B2D30" opacity="1.000000" stroke="none" 
	d="
M254.388519,293.944946 
	C258.021759,292.611053 262.107880,291.301483 266.601624,290.003174 
	C264.781342,291.337433 262.673798,292.986176 260.283447,293.869476 
	C258.676575,294.463257 256.669495,293.973999 254.388519,293.944946 
z"/>
<path fill="#202F40" opacity="1.000000" stroke="none" 
	d="
M350.846802,233.050598 
	C349.973816,232.237885 349.100800,231.425156 348.072815,230.356232 
	C349.613464,229.682404 351.309143,229.264801 353.004822,228.847198 
	C352.814606,230.440994 352.624420,232.034790 352.179352,233.883896 
	C351.924469,234.139191 351.927094,234.084671 351.806763,233.852631 
	C351.406555,233.430588 351.126678,233.240585 350.846802,233.050598 
z"/>
<path fill="#202F40" opacity="1.000000" stroke="none" 
	d="
M343.152405,225.073944 
	C343.512726,225.999908 343.582092,226.888962 343.651428,227.778000 
	C342.675964,227.425415 341.700470,227.072845 340.725006,226.720245 
	C341.437134,226.159180 342.149261,225.598114 343.152405,225.073944 
z"/>
<path fill="#2D3641" opacity="1.000000" stroke="none" 
	d="
M146.800156,131.190521 
	C147.242676,131.492142 147.516739,131.972076 147.777802,132.731445 
	C147.387100,132.463531 147.009399,131.916199 146.800156,131.190521 
z"/>
<path fill="#293242" opacity="1.000000" stroke="none" 
	d="
M120.156448,178.000290 
	C119.782028,180.072113 119.407600,182.143936 118.826767,184.874008 
	C117.274025,187.625687 115.927689,189.719101 114.581352,191.812531 
	C107.833344,197.413727 100.197762,199.877625 91.482681,198.064713 
	C86.351158,196.997269 83.573692,193.496399 82.613197,188.492981 
	C81.674454,183.602890 82.108208,179.241074 85.877396,175.238892 
	C89.730690,171.147400 94.293556,169.474838 99.555099,169.547028 
	C104.677254,169.617279 109.791695,170.249863 115.688232,170.811066 
	C121.988869,171.066650 119.384422,175.421555 120.156448,178.000290 
z"/>
<path fill="#F5FAF9" opacity="1.000000" stroke="none" 
	d="
M134.965561,141.976868 
	C135.728241,146.833450 136.390182,151.772751 136.408066,156.714386 
	C136.448242,167.829407 136.169052,178.945572 135.976410,190.530792 
	C134.641632,188.284470 132.524826,185.658218 132.218445,182.835480 
	C131.397842,175.274994 131.179947,167.631973 131.106339,160.018036 
	C131.084457,157.755203 132.459076,155.506561 132.946472,153.199173 
	C133.182251,152.082840 133.037964,150.792908 132.730942,149.673401 
	C131.929001,146.749435 130.737869,143.827530 134.965561,141.976868 
z"/>
<path fill="#F5FAF9" opacity="1.000000" stroke="none" 
	d="
M120.552216,177.995529 
	C119.384422,175.421555 121.988869,171.066650 116.133476,170.831085 
	C119.922050,168.609177 124.088303,168.444092 128.046463,170.891708 
	C128.959442,171.456284 129.803467,173.109665 129.662460,174.120132 
	C129.527710,175.086029 128.212387,176.262756 127.161034,176.644287 
	C125.187103,177.360641 123.029305,177.570358 120.552216,177.995529 
z"/>
<path fill="#ECF2EF" opacity="1.000000" stroke="none" 
	d="
M114.911713,191.938507 
	C115.927689,189.719101 117.274025,187.625687 118.833008,185.264832 
	C119.298401,186.818115 120.153076,188.863861 119.586861,190.378387 
	C119.224907,191.346542 116.762688,191.529510 114.911713,191.938507 
z"/>
<path fill="#F5FAF9" opacity="1.000000" stroke="none" 
	d="
M137.221893,192.679443 
	C137.410828,192.707886 137.664352,193.029709 137.912460,193.670502 
	C137.700180,193.650574 137.493347,193.311691 137.221893,192.679443 
z"/>
<path fill="#FC9904" opacity="1.000000" stroke="none" 
	d="
M288.910675,263.658813 
	C289.415741,263.425629 289.920837,263.192413 291.004883,263.216736 
	C293.530426,263.499481 295.550507,263.865204 297.405060,263.464600 
	C299.768250,262.954071 302.135040,262.071533 304.249817,260.898010 
	C306.908569,259.422577 309.313843,257.490356 311.828491,255.755264 
	C311.828491,255.755264 311.877594,255.910583 312.252136,255.887573 
	C320.704773,254.397263 320.704773,254.397263 321.147797,260.189545 
	C321.147797,260.189545 321.027893,260.094971 320.716919,260.098328 
	C318.753143,260.782867 317.012146,261.306122 315.462433,262.171844 
	C307.422363,266.663208 299.420166,271.222931 291.437714,275.816132 
	C290.515289,276.346924 289.797363,277.233124 288.592224,277.999878 
	C281.596161,280.086090 275.002289,282.159363 268.386261,284.159363 
	C260.628418,286.504608 252.851318,288.786102 244.664062,291.067749 
	C243.128082,291.074310 242.010574,291.108398 240.550964,291.146698 
	C239.524704,291.150024 238.840530,291.149139 237.756958,291.104980 
	C235.573120,291.711700 233.788666,292.361725 231.629852,293.081207 
	C229.500183,293.427551 227.744888,293.704407 225.887299,293.862732 
	C225.458847,293.596985 225.210144,293.693359 225.027466,294.023346 
	C225.015991,294.013275 225.012741,294.043274 224.727814,294.067200 
	C223.960464,294.368500 223.478058,294.645905 222.542938,294.938293 
	C207.085220,294.931030 192.080231,294.908783 176.960678,294.585144 
	C175.564407,294.185089 174.282700,294.086426 172.609985,293.981873 
	C171.177094,293.936646 170.135223,293.897308 169.036957,293.508301 
	C167.437759,290.016418 165.763092,290.155396 163.618149,292.957062 
	C162.528824,292.934143 161.802734,292.911926 160.935028,292.561768 
	C157.191498,291.481781 153.589584,290.729736 149.655197,289.982849 
	C148.518631,290.290833 147.714569,290.593658 146.910507,290.896484 
	C146.560257,290.889099 146.210007,290.881683 145.553772,290.514252 
	C145.180191,289.746918 145.112595,289.339630 144.979675,288.677948 
	C144.276566,288.295532 143.638763,288.167511 142.626831,288.030945 
	C141.504669,288.005981 140.756638,287.989532 139.913345,287.641052 
	C138.218048,286.216522 136.756058,284.648956 134.987854,284.135040 
	C131.786179,283.204651 127.419952,284.005188 125.294754,282.112579 
	C120.622398,277.951630 114.675369,278.019958 109.631691,275.553680 
	C105.919441,273.738403 102.671738,270.973114 99.217026,268.631165 
	C99.351669,268.069733 99.486313,267.508331 99.620964,266.946899 
	C98.415611,267.645782 97.210266,268.344666 95.606567,269.023438 
	C94.414253,269.071838 93.620293,269.140320 92.826332,269.208801 
	C92.826332,269.208801 92.891624,269.256073 92.843597,268.902374 
	C89.273849,265.588409 86.267578,261.685455 80.923882,262.057220 
	C80.923882,262.057220 80.997246,262.023468 80.952866,261.708221 
	C76.438194,257.610260 71.986076,253.805817 67.492172,250.051376 
	C63.549023,246.757080 59.559013,243.518890 55.589710,240.255920 
	C55.877838,240.022797 56.165966,239.789673 56.454094,239.556549 
	C59.052315,240.196198 61.650532,240.835846 64.248749,241.475494 
	C64.248749,241.475494 64.351059,241.456421 64.405914,241.864838 
	C68.197899,244.537399 71.746658,247.231216 75.713898,248.970459 
	C82.608528,251.993073 89.761673,254.426010 97.026375,257.378815 
	C105.978355,263.735138 116.497681,264.849976 126.294258,267.899353 
	C132.407974,269.802368 138.852707,270.641907 145.281113,272.147156 
	C145.936630,272.228790 146.459915,272.121918 147.319702,272.031067 
	C148.104919,272.066986 148.553635,272.086884 149.286453,272.323059 
	C150.515793,272.639832 151.461029,272.740265 152.406281,272.840698 
	C152.406281,272.840698 152.727081,272.790344 153.173187,273.115173 
	C157.983475,274.757690 162.342499,276.092926 166.715897,277.379181 
	C167.656479,277.655823 168.643692,277.873627 169.618591,277.918274 
	C177.695862,278.288116 185.776123,278.911652 193.853912,278.889313 
	C214.786011,278.831451 235.668869,277.913300 256.264679,273.688599 
	C259.809448,272.961487 263.367645,272.299652 266.912170,271.571411 
	C274.279999,270.057678 281.642853,268.519684 289.044708,267.354492 
	C290.337952,268.437958 291.594238,269.158569 292.850525,269.879181 
	C293.042633,269.201996 293.234741,268.524841 293.426880,267.847656 
	C291.948486,267.567780 290.470093,267.287903 288.983276,266.589844 
	C288.953491,265.334015 288.932098,264.496429 288.910675,263.658813 
z"/>
<path fill="#D49738" opacity="1.000000" stroke="none" 
	d="
M238.156357,291.148224 
	C238.840530,291.149139 239.524704,291.150024 240.814636,291.344299 
	C242.641098,291.390167 243.861832,291.242676 245.082550,291.095215 
	C252.851318,288.786102 260.628418,286.504608 268.386261,284.159363 
	C275.002289,282.159363 281.596161,280.086090 288.611755,278.304565 
	C289.037109,278.766785 289.050476,278.969604 289.063873,279.172455 
	C272.273865,286.990784 254.543396,291.722473 236.376511,294.836975 
	C210.427979,299.285614 184.492188,298.681061 158.631607,293.910889 
	C157.338928,293.672424 156.078415,293.259796 154.900085,292.610413 
	C157.023727,292.491638 159.050201,292.690674 161.076660,292.889709 
	C161.802734,292.911926 162.528824,292.934143 163.981903,293.037659 
	C166.170395,293.365265 167.631866,293.611603 169.093338,293.857971 
	C170.135223,293.897308 171.177094,293.936646 172.880264,294.215088 
	C174.719452,294.598297 175.897339,294.742401 177.075241,294.886475 
	C192.080231,294.908783 207.085220,294.931030 222.830475,294.926270 
	C224.051407,294.613892 224.532074,294.328583 225.012741,294.043274 
	C225.012741,294.043274 225.015991,294.013275 225.265396,294.018036 
	C225.514801,294.022797 225.989578,293.981262 225.989578,293.981262 
	C227.744888,293.704407 229.500183,293.427551 232.032288,293.091125 
	C234.591507,292.403778 236.373932,291.776001 238.156357,291.148224 
z"/>
<path fill="#E7981F" opacity="1.000000" stroke="none" 
	d="
M96.004913,269.043518 
	C97.210266,268.344666 98.415611,267.645782 99.620964,266.946899 
	C99.486313,267.508331 99.351669,268.069733 99.217026,268.631165 
	C102.671738,270.973114 105.919441,273.738403 109.631691,275.553680 
	C114.675369,278.019958 120.622398,277.951630 125.294754,282.112579 
	C127.419952,284.005188 131.786179,283.204651 134.987854,284.135040 
	C136.756058,284.648956 138.218048,286.216522 139.894318,287.917908 
	C139.955429,288.710999 139.940292,288.895203 139.925156,289.079468 
	C127.895493,284.555725 115.857300,280.054443 103.844574,275.486206 
	C101.844658,274.725708 99.955536,273.673859 97.657684,272.686646 
	C97.300171,272.616577 97.148788,272.174988 97.022842,271.674866 
	C96.599571,270.464355 96.302238,269.753937 96.004913,269.043518 
z"/>
<path fill="#D69C36" opacity="1.000000" stroke="none" 
	d="
M289.411011,279.081604 
	C289.050476,278.969604 289.037109,278.766785 289.004150,278.259216 
	C289.797363,277.233124 290.515289,276.346924 291.437714,275.816132 
	C299.420166,271.222931 307.422363,266.663208 315.462433,262.171844 
	C317.012146,261.306122 318.753143,260.782867 320.787903,260.126404 
	C314.461945,264.661438 307.861664,269.344910 301.001251,273.609955 
	C297.494049,275.790375 293.520782,277.221130 289.411011,279.081604 
z"/>
<path fill="#242C3F" opacity="1.000000" stroke="none" 
	d="
M328.017365,253.990128 
	C327.829590,253.996185 327.641846,254.002258 327.171448,254.021667 
	C325.085144,252.873596 323.281464,251.712173 321.221252,250.329285 
	C317.050995,249.004776 313.137238,247.901749 308.919312,246.712997 
	C309.662964,246.132019 310.152985,245.749191 310.823425,245.153442 
	C312.114410,244.668961 313.224976,244.397400 314.792603,244.402481 
	C315.942078,248.451447 318.947174,246.515305 321.209076,247.251785 
	C323.970551,249.328537 328.320374,249.301483 328.017365,253.990128 
z"/>
<path fill="#D69C36" opacity="1.000000" stroke="none" 
	d="
M321.504364,260.126801 
	C320.704773,254.397263 320.704773,254.397263 312.203522,255.822235 
	C313.321991,254.916550 314.863678,254.053207 316.691772,253.006317 
	C317.443359,252.792465 317.908600,252.762161 318.706268,252.617279 
	C324.550201,254.497269 325.226288,256.308685 321.504364,260.126801 
z"/>
<path fill="#E7981F" opacity="1.000000" stroke="none" 
	d="
M160.935028,292.561737 
	C159.050201,292.690674 157.023727,292.491638 154.538849,292.416809 
	C154.080429,292.541046 153.752350,292.642792 153.752350,292.642792 
	C153.752350,292.642792 153.418503,292.560425 153.080795,292.169067 
	C151.824615,291.177734 150.906158,290.577728 149.987686,289.977722 
	C153.589584,290.729736 157.191498,291.481781 160.935028,292.561737 
z"/>
<path fill="#D49738" opacity="1.000000" stroke="none" 
	d="
M140.177719,289.340790 
	C139.940292,288.895203 139.955429,288.710999 139.989594,288.249908 
	C140.756638,287.989532 141.504669,288.005981 142.832306,288.232300 
	C143.956284,288.605560 144.500641,288.768921 145.044998,288.932312 
	C145.112595,289.339630 145.180191,289.746918 145.295776,290.460327 
	C143.705933,290.378326 142.068100,289.990234 140.177719,289.340790 
z"/>
<path fill="#D49738" opacity="1.000000" stroke="none" 
	d="
M149.655197,289.982849 
	C150.906158,290.577728 151.824615,291.177734 152.952560,292.047302 
	C151.309402,291.981903 149.456757,291.646942 147.257324,291.104248 
	C147.714569,290.593658 148.518631,290.290833 149.655197,289.982849 
z"/>
<path fill="#242C3F" opacity="1.000000" stroke="none" 
	d="
M325.874695,257.299988 
	C326.346222,257.793945 326.664703,258.568420 326.990997,259.670227 
	C326.556610,259.998474 326.114471,259.999390 325.340820,260.001343 
	C325.246796,259.195099 325.484222,258.387817 325.874695,257.299988 
z"/>
<path fill="#DF9822" opacity="1.000000" stroke="none" 
	d="
M288.502228,263.669373 
	C288.932098,264.496429 288.953491,265.334015 288.987427,266.585815 
	C289.000000,267.000000 289.007751,266.991699 289.007751,266.991699 
	C281.642853,268.519684 274.279999,270.057678 266.912170,271.571411 
	C263.367645,272.299652 259.809448,272.961487 256.264679,273.688599 
	C235.668869,277.913300 214.786011,278.831451 193.853912,278.889313 
	C185.776123,278.911652 177.695862,278.288116 169.618591,277.918274 
	C168.643692,277.873627 167.656479,277.655823 166.715897,277.379181 
	C162.342499,276.092926 157.983475,274.757690 153.315979,273.192444 
	C158.928299,273.332581 164.876007,273.452271 170.753952,274.155212 
	C193.995132,276.934601 217.195557,276.749390 240.730957,273.486328 
	C255.627686,270.362823 270.181427,267.446503 284.732269,264.515961 
	C285.863007,264.288239 286.973755,263.960968 288.502228,263.669373 
z"/>
<path fill="#D99937" opacity="1.000000" stroke="none" 
	d="
M145.148895,271.958649 
	C138.852707,270.641907 132.407974,269.802368 126.294258,267.899353 
	C116.497681,264.849976 105.978355,263.735138 97.386642,257.322693 
	C97.766403,256.958435 98.005829,256.922913 98.245262,256.887421 
	C114.908134,261.528900 131.571014,266.170410 148.610519,271.210876 
	C148.987152,271.609863 149.002365,272.106750 149.002365,272.106750 
	C148.553635,272.086884 148.104919,272.066986 147.013565,272.016785 
	C145.963593,271.977203 145.556244,271.967926 145.148895,271.958649 
z"/>
<path fill="#D69637" opacity="1.000000" stroke="none" 
	d="
M64.054001,241.212891 
	C61.650532,240.835846 59.052315,240.196198 56.454094,239.556549 
	C56.165966,239.789673 55.877838,240.022797 55.589710,240.255920 
	C59.559013,243.518890 63.549023,246.757080 67.492172,250.051376 
	C71.986076,253.805817 76.438194,257.610260 80.929596,261.741211 
	C75.166862,258.168335 69.383018,254.247223 63.306297,250.165543 
	C59.529968,246.260925 56.046516,242.516891 52.526428,238.393707 
	C57.419525,234.578522 60.190289,239.503677 64.054001,241.212891 
z"/>
<path fill="#D69637" opacity="1.000000" stroke="none" 
	d="
M97.964615,256.658051 
	C98.005829,256.922913 97.766403,256.958435 97.166702,257.050049 
	C89.761673,254.426010 82.608528,251.993073 75.713898,248.970459 
	C71.746658,247.231216 68.197899,244.537399 64.441109,241.903168 
	C75.508949,246.498291 86.596451,251.463486 97.964615,256.658051 
z"/>
<path fill="#293242" opacity="1.000000" stroke="none" 
	d="
M151.202408,268.282471 
	C154.326797,267.791473 158.140472,264.488098 160.938660,269.726807 
	C157.804794,269.592255 154.655472,269.052704 151.202408,268.282471 
z"/>
<path fill="#DF9822" opacity="1.000000" stroke="none" 
	d="
M149.286453,272.323059 
	C149.002365,272.106750 148.987152,271.609863 148.973969,271.361603 
	C150.002319,271.480865 151.043839,271.848419 152.245819,272.528320 
	C151.461029,272.740265 150.515793,272.639832 149.286453,272.323059 
z"/>
<path fill="#FA9A05" opacity="1.000000" stroke="none" 
	d="
M307.040802,234.597595 
	C307.040802,234.597610 307.258392,234.500931 307.783905,234.676147 
	C314.650391,234.039261 320.990112,233.217331 327.332672,232.417648 
	C334.509583,231.512741 341.284546,232.383362 347.149353,237.441467 
	C347.166229,240.617279 347.229065,243.342972 347.249969,246.465881 
	C347.190735,247.931274 347.173401,248.999435 346.895569,250.344589 
	C345.148224,261.699371 338.792206,270.433746 332.684784,279.240356 
	C330.386169,282.554871 329.358734,280.501068 328.848907,277.866364 
	C328.848907,277.866364 328.860809,277.948547 329.162964,277.805908 
	C332.564178,271.572357 335.675232,265.487457 338.733826,259.376282 
	C338.926971,258.990387 338.724854,258.398621 338.683044,257.904572 
	C338.445862,255.101700 338.081329,252.303543 337.985596,249.496094 
	C337.808533,244.303772 335.412476,241.627274 330.239868,240.977341 
	C328.794312,240.795715 327.378571,240.376648 326.272125,239.810059 
	C329.761719,239.191574 332.928314,238.829514 336.094910,238.467468 
	C336.051178,238.011780 336.007416,237.556076 335.963654,237.100388 
	C331.925934,237.100388 327.872986,236.910187 323.861115,237.232269 
	C322.840851,237.314194 321.951233,239.023682 320.539368,239.993362 
	C315.709137,240.316849 311.343384,240.816833 306.972137,240.870102 
	C304.778412,240.896835 301.350311,242.653366 301.480347,238.082657 
	C303.569733,236.887741 305.305267,235.742661 307.040802,234.597595 
z"/>
<path fill="#E0982D" opacity="1.000000" stroke="none" 
	d="
M301.126465,238.132492 
	C301.350311,242.653366 304.778412,240.896835 306.972137,240.870102 
	C311.343384,240.816833 315.709137,240.316849 320.952576,240.010101 
	C323.201691,240.034698 324.575409,240.050598 325.949158,240.066498 
	C327.378571,240.376648 328.794312,240.795715 330.239868,240.977341 
	C335.412476,241.627274 337.808533,244.303772 337.985596,249.496094 
	C338.081329,252.303543 338.445862,255.101700 338.683044,257.904572 
	C338.724854,258.398621 338.926971,258.990387 338.733826,259.376282 
	C335.675232,265.487457 332.564178,271.572357 329.124390,277.790588 
	C331.030670,270.105255 333.597076,262.366974 335.438263,254.459854 
	C337.428802,245.911377 335.689209,243.332001 326.877991,242.888870 
	C318.618134,242.473450 310.295380,243.292984 302.001007,243.588318 
	C299.736053,243.668961 297.473572,243.818893 295.209930,243.937027 
	C294.887115,243.448914 294.564301,242.960800 294.241455,242.472672 
	C295.819214,240.993484 297.396942,239.514282 299.684143,238.011658 
	C300.637848,238.036316 300.882141,238.084396 301.126465,238.132492 
z"/>
<path fill="#E0982D" opacity="1.000000" stroke="none" 
	d="
M328.572845,278.081696 
	C329.358734,280.501068 330.386169,282.554871 332.684784,279.240356 
	C338.792206,270.433746 345.148224,261.699371 347.105530,250.608780 
	C347.769409,251.251480 347.962860,251.906982 348.156311,252.562485 
	C346.241608,264.347900 340.855865,274.371277 332.446136,282.729675 
	C331.146790,284.021118 328.899719,284.358948 327.090912,285.137787 
	C327.291534,283.308289 327.462280,281.474670 327.713348,279.652130 
	C327.778046,279.182556 328.095459,278.747772 328.572845,278.081696 
z"/>
<path fill="#D29840" opacity="1.000000" stroke="none" 
	d="
M348.407806,252.224609 
	C347.962860,251.906982 347.769409,251.251480 347.366028,250.331787 
	C347.173401,248.999435 347.190735,247.931274 347.560516,246.300278 
	C347.673767,242.822083 347.434540,239.906723 347.195343,236.991364 
	C341.284546,232.383362 334.509583,231.512741 327.332672,232.417648 
	C320.990112,233.217331 314.650391,234.039261 307.853638,234.772614 
	C312.289703,233.433990 317.138519,231.371506 322.083679,231.106415 
	C329.120850,230.729156 336.248413,231.462036 343.300018,232.120651 
	C348.504303,232.606750 350.749329,235.947357 350.127899,241.114227 
	C349.695190,244.711899 349.152740,248.296371 348.407806,252.224609 
z"/>
<path fill="#1C3254" opacity="1.000000" stroke="none" 
	d="
M328.234802,254.215607 
	C328.320374,249.301483 323.970551,249.328537 321.639404,247.251282 
	C324.217743,246.655991 326.602325,246.315445 328.986877,245.974899 
	C329.162903,245.972687 329.338928,245.970490 329.779144,245.981888 
	C330.547607,249.315643 331.051849,252.635788 331.556061,255.955933 
	C331.046112,256.114014 330.536133,256.272095 330.026184,256.430176 
	C329.501526,255.767151 328.976868,255.104111 328.234802,254.215607 
z"/>
<path fill="#223038" opacity="1.000000" stroke="none" 
	d="
M328.679443,245.741608 
	C326.602325,246.315445 324.217743,246.655991 321.402832,246.997055 
	C318.947174,246.515305 315.942078,248.451447 315.139893,244.421478 
	C319.477417,244.611984 323.924744,245.060150 328.679443,245.741608 
z"/>
<path fill="#242C3F" opacity="1.000000" stroke="none" 
	d="
M309.361145,230.995605 
	C310.523865,226.915466 312.809723,225.903427 314.995544,228.740433 
	C313.249420,229.704163 311.485077,230.325684 309.361145,230.995605 
z"/>
<path fill="#D29840" opacity="1.000000" stroke="none" 
	d="
M301.480347,238.082657 
	C300.882141,238.084396 300.637848,238.036316 300.025146,237.922516 
	C301.859650,236.755569 304.062592,235.654358 306.653168,234.575378 
	C305.305267,235.742661 303.569733,236.887741 301.480347,238.082657 
z"/>
<path fill="#242C3F" opacity="1.000000" stroke="none" 
	d="
M350.998535,233.254486 
	C351.126678,233.240585 351.406555,233.430588 351.826752,233.834045 
	C351.694794,233.851120 351.422516,233.654739 350.998535,233.254486 
z"/>
<path fill="#DF9822" opacity="1.000000" stroke="none" 
	d="
M311.441956,255.791718 
	C309.313843,257.490356 306.908569,259.422577 304.249817,260.898010 
	C302.135040,262.071533 299.768250,262.954071 297.405060,263.464600 
	C295.550507,263.865204 293.530426,263.499481 291.289917,263.226013 
	C297.682434,260.594574 304.368927,258.211365 311.441956,255.791718 
z"/>
<path fill="#242C3F" opacity="1.000000" stroke="none" 
	d="
M307.226349,254.786331 
	C307.183990,254.610840 307.406494,254.396774 307.895630,254.142670 
	C307.936340,254.315399 307.712646,254.530441 307.226349,254.786331 
z"/>
<path fill="#D69637" opacity="1.000000" stroke="none" 
	d="
M81.043930,262.356018 
	C86.267578,261.685455 89.273849,265.588409 92.803337,268.903931 
	C90.511459,268.150208 88.211823,267.041229 85.586090,265.812714 
	C83.894646,264.680389 82.529312,263.667572 81.043930,262.356018 
z"/>
<path fill="#242C3F" opacity="1.000000" stroke="none" 
	d="
M332.052185,258.965912 
	C332.083252,258.958130 331.849304,259.282959 331.849304,259.282959 
	C331.849304,259.282959 331.862976,259.029877 331.952820,258.971405 
	C332.042664,258.912933 332.021118,258.973694 332.052185,258.965912 
z"/>
<path fill="#242C3F" opacity="1.000000" stroke="none" 
	d="
M56.171768,248.257843 
	C56.902401,248.474091 57.784500,248.966949 58.814636,249.737869 
	C58.082859,249.522095 57.203049,249.028275 56.171768,248.257843 
z"/>
<path fill="#242C3F" opacity="1.000000" stroke="none" 
	d="
M55.137619,247.174866 
	C55.305538,247.113327 55.555805,247.312973 55.886406,247.774994 
	C55.716900,247.837555 55.467976,247.637131 55.137619,247.174866 
z"/>
<path fill="#D69637" opacity="1.000000" stroke="none" 
	d="
M95.606560,269.023438 
	C96.302238,269.753937 96.599571,270.464355 96.930527,271.460510 
	C95.683197,271.085571 94.402252,270.424896 92.973816,269.486511 
	C93.620293,269.140320 94.414253,269.071838 95.606560,269.023438 
z"/>
<path fill="#DF9822" opacity="1.000000" stroke="none" 
	d="
M288.995850,267.004028 
	C290.470093,267.287903 291.948486,267.567780 293.426880,267.847656 
	C293.234741,268.524841 293.042633,269.201996 292.850525,269.879181 
	C291.594238,269.158569 290.337952,268.437958 289.044708,267.354523 
	C289.007751,266.991699 289.000000,267.000000 288.995850,267.004028 
z"/>
<path fill="#E7981F" opacity="1.000000" stroke="none" 
	d="
M169.036957,293.508301 
	C167.631866,293.611603 166.170395,293.365265 164.345154,293.038330 
	C165.763092,290.155396 167.437759,290.016418 169.036957,293.508301 
z"/>
<path fill="#F09C15" opacity="1.000000" stroke="none" 
	d="
M237.756958,291.104980 
	C236.373932,291.776001 234.591507,292.403778 232.406647,293.021667 
	C233.788666,292.361725 235.573120,291.711700 237.756958,291.104980 
z"/>
<path fill="#E7981F" opacity="1.000000" stroke="none" 
	d="
M176.960678,294.585114 
	C175.897339,294.742401 174.719452,294.598297 173.271271,294.220947 
	C174.282700,294.086426 175.564407,294.185089 176.960678,294.585114 
z"/>
<path fill="#E7981F" opacity="1.000000" stroke="none" 
	d="
M144.979675,288.677948 
	C144.500641,288.768921 143.956284,288.605560 143.206451,288.240845 
	C143.638763,288.167511 144.276566,288.295532 144.979675,288.677948 
z"/>
<path fill="#F09C15" opacity="1.000000" stroke="none" 
	d="
M244.664062,291.067719 
	C243.861832,291.242676 242.641098,291.390167 241.156723,291.340027 
	C242.010574,291.108398 243.128082,291.074310 244.664062,291.067719 
z"/>
<path fill="#DF9822" opacity="1.000000" stroke="none" 
	d="
M145.281113,272.147156 
	C145.556244,271.967926 145.963593,271.977203 146.677078,272.000763 
	C146.459915,272.121918 145.936630,272.228790 145.281113,272.147156 
z"/>
<path fill="#F09C15" opacity="1.000000" stroke="none" 
	d="
M224.727814,294.067200 
	C224.532074,294.328583 224.051407,294.613892 223.283203,294.911255 
	C223.478058,294.645905 223.960464,294.368500 224.727814,294.067200 
z"/>
<path fill="#F09C15" opacity="1.000000" stroke="none" 
	d="
M225.887299,293.862732 
	C225.989578,293.981262 225.514801,294.022797 225.276855,294.028107 
	C225.210144,293.693359 225.458847,293.596985 225.887299,293.862732 
z"/>
<path fill="#FC9904" opacity="1.000000" stroke="none" 
	d="
M326.272125,239.810059 
	C324.575409,240.050598 323.201691,240.034698 321.414764,240.002075 
	C321.951233,239.023682 322.840851,237.314194 323.861115,237.232269 
	C327.872986,236.910187 331.925934,237.100388 335.963654,237.100388 
	C336.007416,237.556076 336.051178,238.011780 336.094910,238.467468 
	C332.928314,238.829514 329.761719,239.191574 326.272125,239.810059 
z"/>
<path fill="#E0982D" opacity="1.000000" stroke="none" 
	d="
M347.149353,237.441467 
	C347.434540,239.906723 347.673767,242.822083 347.602448,245.903046 
	C347.229065,243.342972 347.166229,240.617279 347.149353,237.441467 
z"/>
</svg>