<svg version="1.1" id="Layer_1" xmlns="http://www.w3.org/2000/svg" xmlns:xlink="http://www.w3.org/1999/xlink" x="0px" y="0px"
	 width="100%" viewBox="0 0 1320 1320" enable-background="new 0 0 1320 1320" xml:space="preserve">
<path fill="#000000" opacity="1.000000" stroke="none" 
	d="
M1321.000000,499.000000 
	C1321.000000,773.333313 1321.000000,1047.166626 1321.000000,1321.000000 
	C881.000122,1321.000000 441.000244,1321.000000 1.000287,1321.000000 
	C1.000192,881.000183 1.000192,441.000427 1.000096,1.000464 
	C440.999725,1.000310 880.999451,1.000310 1320.999512,1.000155 
	C1321.000000,166.833328 1321.000000,332.666656 1321.000000,499.000000 
M566.500000,921.000000 
	C551.413330,921.000000 536.326660,921.000000 521.381958,921.000000 
	C521.381958,1014.738708 521.381958,1107.776367 521.381958,1200.743164 
	C541.365051,1200.743164 560.965149,1200.743164 581.086121,1200.743164 
	C581.086121,1167.438965 581.086121,1134.387085 581.086121,1101.350342 
	C604.666382,1101.350342 627.721191,1101.350342 651.115356,1101.350342 
	C651.115356,1104.643188 651.115356,1107.586914 651.115356,1111.043701 
	C654.512085,1111.043701 657.577820,1111.043701 661.151428,1111.043701 
	C661.151428,1114.624756 661.151428,1117.689087 661.151428,1121.259399 
	C664.738464,1121.259399 667.803040,1121.259399 671.190369,1121.259399 
	C671.190369,1124.728271 671.190369,1127.676392 671.190369,1131.121582 
	C674.587463,1131.121582 677.662048,1131.121582 681.229248,1131.121582 
	C681.229248,1134.707642 681.229248,1137.772705 681.229248,1141.160400 
	C684.694824,1141.160400 687.637512,1141.160400 691.091492,1141.160400 
	C691.091492,1144.562012 691.091492,1147.627319 691.091492,1151.199463 
	C694.675171,1151.199463 697.741455,1151.199463 701.130432,1151.199463 
	C701.130432,1154.663818 701.130432,1157.606567 701.130432,1161.061523 
	C704.523193,1161.061523 707.599426,1161.061523 711.169312,1161.061523 
	C711.169312,1164.643311 711.169312,1167.707520 711.169312,1171.279541 
	C714.752319,1171.279541 717.815063,1171.279541 721.203613,1171.279541 
	C721.203613,1174.750000 721.203613,1177.697021 721.203613,1181.139404 
	C724.612061,1181.139404 727.676575,1181.139404 731.247192,1181.139404 
	C731.247192,1184.726318 731.247192,1187.790894 731.247192,1191.178467 
	C734.715271,1191.178467 737.663330,1191.178467 741.112793,1191.178467 
	C741.112793,1194.578003 741.112793,1197.640015 741.112793,1200.629028 
	C761.359253,1200.629028 781.077515,1200.629028 800.752319,1200.629028 
	C800.752319,1193.983643 800.752319,1187.711914 800.752319,1180.923340 
	C797.450562,1180.923340 794.386414,1180.923340 790.815063,1180.923340 
	C790.815063,1177.340454 790.815063,1174.273193 790.815063,1170.883911 
	C787.351135,1170.883911 784.408508,1170.883911 780.952881,1170.883911 
	C780.952881,1167.484253 780.952881,1164.418457 780.952881,1160.844971 
	C777.376099,1160.844971 774.302979,1160.844971 770.737305,1160.844971 
	C770.737305,1157.258057 770.737305,1154.193481 770.737305,1150.806030 
	C767.270813,1150.806030 764.328369,1150.806030 760.875061,1150.806030 
	C760.875061,1147.402954 760.875061,1144.338135 760.875061,1140.767090 
	C757.288757,1140.767090 754.223816,1140.767090 750.836121,1140.767090 
	C750.836121,1137.300049 750.836121,1134.352051 750.836121,1130.904907 
	C747.441284,1130.904907 744.366089,1130.904907 740.797241,1130.904907 
	C740.797241,1127.320923 740.797241,1124.254761 740.797241,1120.865967 
	C737.332581,1120.865967 734.389893,1120.865967 730.934937,1120.865967 
	C730.934937,1117.465698 730.934937,1114.400146 730.934937,1110.827026 
	C727.353394,1110.827026 724.285461,1110.827026 721.225403,1110.827026 
	C721.225403,1107.362305 721.225403,1104.422852 721.225403,1100.967285 
	C747.833984,1100.967285 774.222595,1100.967285 800.681152,1100.967285 
	C800.681152,1040.733032 800.681152,981.022949 800.681152,921.000000 
	C722.741821,921.000000 645.120911,921.000000 566.500000,921.000000 
M121.000000,592.500000 
	C121.000000,661.922180 121.000000,731.344299 121.000000,800.617493 
	C141.405670,800.617493 161.132645,800.617493 181.176331,800.617493 
	C181.176331,767.293640 181.176331,734.351379 181.176331,701.294189 
	C234.559158,701.294189 287.617950,701.294189 341.176453,701.294189 
	C341.176453,734.647156 341.176453,767.709229 341.176453,800.617371 
	C361.405914,800.617371 381.132874,800.617371 400.749908,800.617371 
	C400.749908,707.293518 400.749908,614.352478 400.749908,521.294312 
	C307.440796,521.294312 214.382019,521.294312 121.000000,521.294312 
	C121.000000,544.891602 121.000000,568.195801 121.000000,592.500000 
M521.000000,285.500000 
	C521.000000,323.920959 521.000000,362.341919 521.000000,400.699738 
	C614.654053,400.699738 707.707275,400.699738 800.699707,400.699738 
	C800.699707,307.345917 800.699707,214.292664 800.699707,121.300262 
	C707.345886,121.300262 614.292664,121.300262 521.000000,121.300262 
	C521.000000,175.900116 521.000000,230.200058 521.000000,285.500000 
M263.500000,1201.000000 
	C309.253052,1201.000000 355.006134,1201.000000 400.701324,1201.000000 
	C400.701324,1107.349121 400.701324,1014.295898 400.701324,921.298706 
	C307.349091,921.298706 214.295868,921.298706 121.298645,921.298706 
	C121.298645,1014.650940 121.298645,1107.704224 121.298645,1201.000000 
	C168.564590,1201.000000 215.532288,1201.000000 263.500000,1201.000000 
M370.500000,121.000000 
	C287.428986,121.000000 204.357971,121.000000 121.362717,121.000000 
	C121.362717,214.700485 121.362717,307.737823 121.362717,400.605896 
	C214.763382,400.605896 307.800873,400.605896 400.733826,400.605896 
	C400.733826,370.613037 400.733826,341.014954 400.733826,311.317719 
	C380.748688,311.317719 361.031219,311.317719 340.785950,311.317719 
	C340.785950,321.356293 340.785950,331.086395 340.785950,340.762329 
	C287.328827,340.762329 234.402023,340.762329 181.280075,340.762329 
	C181.280075,287.479919 181.280075,234.435455 181.280075,181.322449 
	C234.605362,181.322449 287.649933,181.322449 341.223511,181.322449 
	C341.223511,191.366043 341.223511,201.096222 341.223511,210.748413 
	C361.354431,210.748413 380.954315,210.748413 400.699615,210.748413 
	C400.699615,180.780579 400.699615,151.065079 400.699615,121.000000 
	C390.768890,121.000000 381.134460,121.000000 370.500000,121.000000 
M521.000000,599.500000 
	C521.000000,666.591125 521.000000,733.682190 521.000000,800.721802 
	C614.631531,800.721802 707.697510,800.721802 800.720215,800.721802 
	C800.720215,770.705811 800.720215,740.968933 800.720215,711.282288 
	C780.701416,711.282288 760.963623,711.282288 740.828735,711.282288 
	C740.828735,721.303467 740.828735,731.048157 740.828735,740.714844 
	C687.359314,740.714844 634.290649,740.714844 581.284485,740.714844 
	C581.284485,687.360596 581.284485,634.291992 581.284485,581.283813 
	C634.638123,581.283813 687.706726,581.283813 741.174438,581.283813 
	C741.174438,591.306641 741.174438,601.051270 741.174438,610.710144 
	C761.313904,610.710144 781.051819,610.710144 800.708618,610.710144 
	C800.708618,580.682373 800.708618,550.945312 800.708618,521.286987 
	C707.350891,521.286987 614.284851,521.286987 521.000000,521.286987 
	C521.000000,547.215576 521.000000,572.857788 521.000000,599.500000 
M1176.500000,241.000000 
	C1111.418579,241.000000 1046.337158,241.000000 981.367920,241.000000 
	C981.367920,220.619278 981.367920,200.894882 981.367920,180.865234 
	C1054.668579,180.865234 1127.601685,180.865234 1200.736328,180.865234 
	C1200.736328,160.830490 1200.736328,141.107346 1200.736328,121.292084 
	C1107.424072,121.292084 1014.375916,121.292084 921.320435,121.292084 
	C921.320435,214.632782 921.320435,307.681030 921.320435,400.638763 
	C941.367126,400.638763 961.091370,400.638763 981.128113,400.638763 
	C981.128113,367.340271 981.128113,334.401794 981.128113,300.978271 
	C1054.495850,300.978271 1127.547729,300.978271 1200.704346,300.978271 
	C1200.704346,280.765869 1200.704346,261.042603 1200.704346,241.000000 
	C1192.774536,241.000000 1185.137329,241.000000 1176.500000,241.000000 
M1141.000000,929.546326 
	C1141.000000,946.635010 1141.000000,963.723633 1141.000000,980.665161 
	C1087.292725,980.665161 1034.230835,980.665161 980.733215,980.665161 
	C980.733215,960.597046 980.733215,940.862000 980.733215,921.369751 
	C960.560608,921.369751 940.827148,921.369751 921.207397,921.369751 
	C921.207397,961.351562 921.207397,1000.963379 921.207397,1041.009277 
	C957.810120,1041.009277 994.208618,1041.009277 1031.036621,1041.009277 
	C1031.036621,1094.505249 1031.036621,1147.568115 1031.036621,1200.747803 
	C1051.201660,1200.747803 1070.933105,1200.747803 1091.096313,1200.747803 
	C1091.096313,1147.434570 1091.096313,1094.371704 1091.096313,1040.876221 
	C1127.925415,1040.876221 1164.323853,1040.876221 1200.706055,1040.876221 
	C1200.706055,1000.710632 1200.706055,960.981018 1200.706055,921.311401 
	C1180.678711,921.311401 1160.946777,921.311401 1141.000000,921.311401 
	C1141.000000,923.935364 1141.000000,926.249512 1141.000000,929.546326 
M1096.618042,581.000000 
	C1131.355469,581.000000 1166.092896,581.000000 1200.736694,581.000000 
	C1200.736694,560.622803 1200.736694,541.022522 1200.736694,521.297241 
	C1107.434326,521.297241 1014.395447,521.297241 921.349304,521.297241 
	C921.349304,541.314575 921.349304,561.032593 921.349304,581.270874 
	C958.081116,581.270874 994.466003,581.270874 1031.181152,581.270874 
	C1031.181152,654.719055 1031.181152,727.644104 1031.181152,800.688354 
	C1051.238159,800.688354 1070.955933,800.688354 1091.009521,800.688354 
	C1091.009521,727.453064 1091.009521,654.528259 1091.009521,581.282837 
	C1092.764282,581.175842 1094.206177,581.087952 1096.618042,581.000000 
z"/>
<path fill="#00FF00" opacity="1.000000" stroke="none" 
	d="
M567.000000,921.000000 
	C645.120911,921.000000 722.741821,921.000000 800.681152,921.000000 
	C800.681152,981.022949 800.681152,1040.733032 800.681152,1100.967285 
	C774.222595,1100.967285 747.833984,1100.967285 721.225403,1100.967285 
	C721.225403,1104.422852 721.225403,1107.362305 721.225403,1110.827026 
	C724.285461,1110.827026 727.353394,1110.827026 730.934937,1110.827026 
	C730.934937,1114.400146 730.934937,1117.465698 730.934937,1120.865967 
	C734.389893,1120.865967 737.332581,1120.865967 740.797241,1120.865967 
	C740.797241,1124.254761 740.797241,1127.320923 740.797241,1130.904907 
	C744.366089,1130.904907 747.441284,1130.904907 750.836121,1130.904907 
	C750.836121,1134.352051 750.836121,1137.300049 750.836121,1140.767090 
	C754.223816,1140.767090 757.288757,1140.767090 760.875061,1140.767090 
	C760.875061,1144.338135 760.875061,1147.402954 760.875061,1150.806030 
	C764.328369,1150.806030 767.270813,1150.806030 770.737305,1150.806030 
	C770.737305,1154.193481 770.737305,1157.258057 770.737305,1160.844971 
	C774.302979,1160.844971 777.376099,1160.844971 780.952881,1160.844971 
	C780.952881,1164.418457 780.952881,1167.484253 780.952881,1170.883911 
	C784.408508,1170.883911 787.351135,1170.883911 790.815063,1170.883911 
	C790.815063,1174.273193 790.815063,1177.340454 790.815063,1180.923340 
	C794.386414,1180.923340 797.450562,1180.923340 800.752319,1180.923340 
	C800.752319,1187.711914 800.752319,1193.983643 800.752319,1200.629028 
	C781.077515,1200.629028 761.359253,1200.629028 741.112793,1200.629028 
	C741.112793,1197.640015 741.112793,1194.578003 741.112793,1191.178467 
	C737.663330,1191.178467 734.715271,1191.178467 731.247192,1191.178467 
	C731.247192,1187.790894 731.247192,1184.726318 731.247192,1181.139404 
	C727.676575,1181.139404 724.612061,1181.139404 721.203613,1181.139404 
	C721.203613,1177.697021 721.203613,1174.750000 721.203613,1171.279541 
	C717.815063,1171.279541 714.752319,1171.279541 711.169312,1171.279541 
	C711.169312,1167.707520 711.169312,1164.643311 711.169312,1161.061523 
	C707.599426,1161.061523 704.523193,1161.061523 701.130432,1161.061523 
	C701.130432,1157.606567 701.130432,1154.663818 701.130432,1151.199463 
	C697.741455,1151.199463 694.675171,1151.199463 691.091492,1151.199463 
	C691.091492,1147.627319 691.091492,1144.562012 691.091492,1141.160400 
	C687.637512,1141.160400 684.694824,1141.160400 681.229248,1141.160400 
	C681.229248,1137.772705 681.229248,1134.707642 681.229248,1131.121582 
	C677.662048,1131.121582 674.587463,1131.121582 671.190369,1131.121582 
	C671.190369,1127.676392 671.190369,1124.728271 671.190369,1121.259399 
	C667.803040,1121.259399 664.738464,1121.259399 661.151428,1121.259399 
	C661.151428,1117.689087 661.151428,1114.624756 661.151428,1111.043701 
	C657.577820,1111.043701 654.512085,1111.043701 651.115356,1111.043701 
	C651.115356,1107.586914 651.115356,1104.643188 651.115356,1101.350342 
	C627.721191,1101.350342 604.666382,1101.350342 581.086121,1101.350342 
	C581.086121,1134.387085 581.086121,1167.438965 581.086121,1200.743164 
	C560.965149,1200.743164 541.365051,1200.743164 521.381958,1200.743164 
	C521.381958,1107.776367 521.381958,1014.738708 521.381958,921.000000 
	C536.326660,921.000000 551.413330,921.000000 567.000000,921.000000 
M590.537476,981.000000 
	C587.439026,981.000000 584.340637,981.000000 581.391113,981.000000 
	C581.391113,1001.401306 581.391113,1021.119385 581.391113,1040.745850 
	C634.707703,1040.745850 687.632874,1040.745850 740.695190,1040.745850 
	C740.695190,1020.773621 740.695190,1001.056946 740.695190,981.000000 
	C690.769348,981.000000 641.147400,981.000000 590.537476,981.000000 
z"/>
<path fill="#FF8000" opacity="1.000000" stroke="none" 
	d="
M121.000000,592.000000 
	C121.000000,568.195801 121.000000,544.891602 121.000000,521.294312 
	C214.382019,521.294312 307.440796,521.294312 400.749908,521.294312 
	C400.749908,614.352478 400.749908,707.293518 400.749908,800.617371 
	C381.132874,800.617371 361.405914,800.617371 341.176453,800.617371 
	C341.176453,767.709229 341.176453,734.647156 341.176453,701.294189 
	C287.617950,701.294189 234.559158,701.294189 181.176331,701.294189 
	C181.176331,734.351379 181.176331,767.293640 181.176331,800.617493 
	C161.132645,800.617493 141.405670,800.617493 121.000000,800.617493 
	C121.000000,731.344299 121.000000,661.922180 121.000000,592.000000 
M308.498901,581.000000 
	C266.093964,581.000000 223.689041,581.000000 181.344452,581.000000 
	C181.344452,601.345032 181.344452,621.062988 181.344452,640.644409 
	C234.726776,640.644409 287.763977,640.644409 340.998932,640.644409 
	C340.998932,621.801941 340.958679,603.314209 341.036133,584.827087 
	C341.050018,581.511292 338.969238,580.923340 336.560883,581.069092 
	C333.704712,581.242004 330.866821,582.347900 328.041626,582.273010 
	C321.853485,582.108643 315.678345,581.454163 308.498901,581.000000 
z"/>
<path fill="#FF00FF" opacity="1.000000" stroke="none" 
	d="
M521.000000,285.000000 
	C521.000000,230.200058 521.000000,175.900116 521.000000,121.300262 
	C614.292664,121.300262 707.345886,121.300262 800.699707,121.300262 
	C800.699707,214.292664 800.699707,307.345917 800.699707,400.699738 
	C707.707275,400.699738 614.654053,400.699738 521.000000,400.699738 
	C521.000000,362.341919 521.000000,323.920959 521.000000,285.000000 
M741.000000,313.500000 
	C741.000000,269.418243 741.000000,225.336487 741.000000,181.291687 
	C687.362732,181.291687 634.309448,181.291687 581.291687,181.291687 
	C581.291687,234.637222 581.291687,287.690521 581.291687,340.708313 
	C634.637207,340.708313 687.690552,340.708313 741.000000,340.708313 
	C741.000000,331.779144 741.000000,323.139557 741.000000,313.500000 
z"/>
<path fill="#FFFF00" opacity="1.000000" stroke="none" 
	d="
M263.000000,1201.000000 
	C215.532288,1201.000000 168.564590,1201.000000 121.298645,1201.000000 
	C121.298645,1107.704224 121.298645,1014.650940 121.298645,921.298706 
	C214.295868,921.298706 307.349091,921.298706 400.701324,921.298706 
	C400.701324,1014.295898 400.701324,1107.349121 400.701324,1201.000000 
	C355.006134,1201.000000 309.253052,1201.000000 263.000000,1201.000000 
M341.000000,998.501221 
	C341.000000,992.739319 341.000000,986.977417 341.000000,981.306091 
	C287.333923,981.306091 234.280502,981.306091 181.306107,981.306091 
	C181.306107,1034.666138 181.306107,1087.719604 181.306107,1140.693848 
	C234.666199,1140.693848 287.719635,1140.693848 341.000000,1140.693848 
	C341.000000,1093.425537 341.000000,1046.463135 341.000000,998.501221 
z"/>
<path fill="#FF0000" opacity="1.000000" stroke="none" 
	d="
M371.000000,121.000000 
	C381.134460,121.000000 390.768890,121.000000 400.699615,121.000000 
	C400.699615,151.065079 400.699615,180.780579 400.699615,210.748413 
	C380.954315,210.748413 361.354431,210.748413 341.223511,210.748413 
	C341.223511,201.096222 341.223511,191.366043 341.223511,181.322449 
	C287.649933,181.322449 234.605362,181.322449 181.280075,181.322449 
	C181.280075,234.435455 181.280075,287.479919 181.280075,340.762329 
	C234.402023,340.762329 287.328827,340.762329 340.785950,340.762329 
	C340.785950,331.086395 340.785950,321.356293 340.785950,311.317719 
	C361.031219,311.317719 380.748688,311.317719 400.733826,311.317719 
	C400.733826,341.014954 400.733826,370.613037 400.733826,400.605896 
	C307.800873,400.605896 214.763382,400.605896 121.362717,400.605896 
	C121.362717,307.737823 121.362717,214.700485 121.362717,121.000000 
	C204.357971,121.000000 287.428986,121.000000 371.000000,121.000000 
z"/>
<path fill="#FFFFFF" opacity="1.000000" stroke="none" 
	d="
M521.000000,599.000000 
	C521.000000,572.857788 521.000000,547.215576 521.000000,521.286987 
	C614.284851,521.286987 707.350891,521.286987 800.708618,521.286987 
	C800.708618,550.945312 800.708618,580.682373 800.708618,610.710144 
	C781.051819,610.710144 761.313904,610.710144 741.174438,610.710144 
	C741.174438,601.051270 741.174438,591.306641 741.174438,581.283813 
	C687.706726,581.283813 634.638123,581.283813 581.284485,581.283813 
	C581.284485,634.291992 581.284485,687.360596 581.284485,740.714844 
	C634.290649,740.714844 687.359314,740.714844 740.828735,740.714844 
	C740.828735,731.048157 740.828735,721.303467 740.828735,711.282288 
	C760.963623,711.282288 780.701416,711.282288 800.720215,711.282288 
	C800.720215,740.968933 800.720215,770.705811 800.720215,800.721802 
	C707.697510,800.721802 614.631531,800.721802 521.000000,800.721802 
	C521.000000,733.682190 521.000000,666.591125 521.000000,599.000000 
z"/>
<path fill="#8000FF" opacity="1.000000" stroke="none" 
	d="
M1177.000000,241.000000 
	C1185.137329,241.000000 1192.774536,241.000000 1200.704346,241.000000 
	C1200.704346,261.042603 1200.704346,280.765869 1200.704346,300.978271 
	C1127.547729,300.978271 1054.495850,300.978271 981.128113,300.978271 
	C981.128113,334.401794 981.128113,367.340271 981.128113,400.638763 
	C961.091370,400.638763 941.367126,400.638763 921.320435,400.638763 
	C921.320435,307.681030 921.320435,214.632782 921.320435,121.292084 
	C1014.375916,121.292084 1107.424072,121.292084 1200.736328,121.292084 
	C1200.736328,141.107346 1200.736328,160.830490 1200.736328,180.865234 
	C1127.601685,180.865234 1054.668579,180.865234 981.367920,180.865234 
	C981.367920,200.894882 981.367920,220.619278 981.367920,241.000000 
	C1046.337158,241.000000 1111.418579,241.000000 1177.000000,241.000000 
z"/>
<path fill="#00FFFF" opacity="1.000000" stroke="none" 
	d="
M1141.000000,929.055054 
	C1141.000000,926.249512 1141.000000,923.935364 1141.000000,921.311401 
	C1160.946777,921.311401 1180.678711,921.311401 1200.706055,921.311401 
	C1200.706055,960.981018 1200.706055,1000.710632 1200.706055,1040.876221 
	C1164.323853,1040.876221 1127.925415,1040.876221 1091.096313,1040.876221 
	C1091.096313,1094.371704 1091.096313,1147.434570 1091.096313,1200.747803 
	C1070.933105,1200.747803 1051.201660,1200.747803 1031.036621,1200.747803 
	C1031.036621,1147.568115 1031.036621,1094.505249 1031.036621,1041.009277 
	C994.208618,1041.009277 957.810120,1041.009277 921.207397,1041.009277 
	C921.207397,1000.963379 921.207397,961.351562 921.207397,921.369751 
	C940.827148,921.369751 960.560608,921.369751 980.733215,921.369751 
	C980.733215,940.862000 980.733215,960.597046 980.733215,980.665161 
	C1034.230835,980.665161 1087.292725,980.665161 1141.000000,980.665161 
	C1141.000000,963.723633 1141.000000,946.635010 1141.000000,929.055054 
z"/>
<path fill="#0000FF" opacity="1.000000" stroke="none" 
	d="
M1096.133057,581.000000 
	C1094.206177,581.087952 1092.764282,581.175842 1091.009521,581.282837 
	C1091.009521,654.528259 1091.009521,727.453064 1091.009521,800.688354 
	C1070.955933,800.688354 1051.238159,800.688354 1031.181152,800.688354 
	C1031.181152,727.644104 1031.181152,654.719055 1031.181152,581.270874 
	C994.466003,581.270874 958.081116,581.270874 921.349304,581.270874 
	C921.349304,561.032593 921.349304,541.314575 921.349304,521.297241 
	C1014.395447,521.297241 1107.434326,521.297241 1200.736694,521.297241 
	C1200.736694,541.022522 1200.736694,560.622803 1200.736694,581.000000 
	C1166.092896,581.000000 1131.355469,581.000000 1096.133057,581.000000 
z"/>
<path fill="#000000" opacity="1.000000" stroke="none" 
	d="
M591.031494,981.000000 
	C641.147400,981.000000 690.769348,981.000000 740.695190,981.000000 
	C740.695190,1001.056946 740.695190,1020.773621 740.695190,1040.745850 
	C687.632874,1040.745850 634.707703,1040.745850 581.391113,1040.745850 
	C581.391113,1021.119385 581.391113,1001.401306 581.391113,981.000000 
	C584.340637,981.000000 587.439026,981.000000 591.031494,981.000000 
z"/>
<path fill="#000000" opacity="1.000000" stroke="none" 
	d="
M308.998413,581.000000 
	C315.678345,581.454163 321.853485,582.108643 328.041626,582.273010 
	C330.866821,582.347900 333.704712,581.242004 336.560883,581.069092 
	C338.969238,580.923340 341.050018,581.511292 341.036133,584.827087 
	C340.958679,603.314209 340.998932,621.801941 340.998932,640.644409 
	C287.763977,640.644409 234.726776,640.644409 181.344452,640.644409 
	C181.344452,621.062988 181.344452,601.345032 181.344452,581.000000 
	C223.689041,581.000000 266.093964,581.000000 308.998413,581.000000 
z"/>
<path fill="#000000" opacity="1.000000" stroke="none" 
	d="
M741.000000,314.000000 
	C741.000000,323.139557 741.000000,331.779144 741.000000,340.708313 
	C687.690552,340.708313 634.637207,340.708313 581.291687,340.708313 
	C581.291687,287.690521 581.291687,234.637222 581.291687,181.291687 
	C634.309448,181.291687 687.362732,181.291687 741.000000,181.291687 
	C741.000000,225.336487 741.000000,269.418243 741.000000,314.000000 
z"/>
<path fill="#000000" opacity="1.000000" stroke="none" 
	d="
M341.000000,999.000916 
	C341.000000,1046.463135 341.000000,1093.425537 341.000000,1140.693848 
	C287.719635,1140.693848 234.666199,1140.693848 181.306107,1140.693848 
	C181.306107,1087.719604 181.306107,1034.666138 181.306107,981.306091 
	C234.280502,981.306091 287.333923,981.306091 341.000000,981.306091 
	C341.000000,986.977417 341.000000,992.739319 341.000000,999.000916 
z"/>
</svg>