<svg width="272" height="245" viewBox="0 0 272 245" fill="none" xmlns="http://www.w3.org/2000/svg">
<path d="M261.171 55.1717C250.062 24.224 241.336 14.7314 229.733 3.01664C226.268 -0.481252 220.748 -0.967284 216.689 1.81843C165.932 36.6498 137.382 46.4813 91.0632 46.8512C59.213 47.6819 39.9028 47.4754 10.7007 45.6937C4.9149 45.3407 0 49.9204 0 55.717V189.564C0 195.375 4.93277 199.958 10.7323 199.592C33.7417 198.139 48.6115 197.989 71.6487 198.931V156.404H51.6154C46.0854 156.404 41.6025 151.921 41.6025 146.391V98.0043C41.6025 92.4743 46.0854 87.9914 51.6154 87.9914H113.713C151.457 84.754 173.28 79.3563 206.975 57.922C210.619 55.6037 215.52 57.1541 217.001 61.2115C234.138 108.164 233.613 137.646 216.903 184.607C215.462 188.656 210.609 190.265 206.952 188.008C169.516 164.897 147.137 158.991 109.553 156.404V198.931C150.186 203.094 174.763 213.123 216.334 242.612C220.54 245.596 226.37 244.991 229.637 241C275.053 185.514 280.25 124.389 261.171 55.1717Z" fill="url(#paint0_linear_796_309)"/>
<defs>
<linearGradient id="paint0_linear_796_309" x1="197.784" y1="67.8357" x2="-66.1071" y2="312.916" gradientUnits="userSpaceOnUse">
<stop stop-color="#FC8432"/>
<stop offset="1" stop-color="#CE7A41" stop-opacity="0.4"/>
</linearGradient>
</defs>
</svg>
