<?xml version="1.0" encoding="UTF-8"?>
<svg version="1.1" xmlns="http://www.w3.org/2000/svg" width="32" height="32">
<path d="M0 0 C3.12172918 2.4430924 4.70747434 3.98741118 5.8125 7.8125 C5.874375 8.534375 5.93625 9.25625 6 10 C6.33 9.01 6.66 8.02 7 7 C8.32 7 9.64 7 11 7 C11.05422947 8.4370809 11.09289723 9.87475462 11.125 11.3125 C11.14820313 12.11300781 11.17140625 12.91351563 11.1953125 13.73828125 C11 16 11 16 9 19 C8.34 19 7.68 19 7 19 C7.515625 20.0725 8.03125 21.145 8.5625 22.25 C9.63240282 24.71477612 10.03572782 25.72132303 9.6875 28.4375 C9.460625 28.953125 9.23375 29.46875 9 30 C6.57418066 30.80860645 5.15796615 31.03325603 2.625 30.5 C-0.04649706 29.8136391 -0.04649706 29.8136391 -2.875 30.625 C-7.12758297 31.13530996 -9.32938351 30.14696436 -13 28 C-14.9375 24.8125 -14.9375 24.8125 -16 22 C-16.33 22.99 -16.66 23.98 -17 25 C-18.32 25 -19.64 25 -21 25 C-21.44059795 19.80094414 -21.44059795 19.80094414 -21 17 C-19.37550757 15.29220027 -17.70779973 13.62449243 -16 12 C-15.835 10.845 -15.67 9.69 -15.5 8.5 C-14.8707347 4.09514288 -13.4026803 2.75455072 -10 0 C-6.1544104 -1.2818632 -3.93271581 -0.94927623 0 0 Z " fill="#DDE4E9" transform="translate(21,1)"/>
<path d="M0 0 C5.5952381 0.5952381 5.5952381 0.5952381 8 3 C8.1875 5.5625 8.1875 5.5625 8 8 C7 9 7 9 4.6875 9.3125 C2 9 2 9 -0.375 7.25 C-2 5 -2 5 -1.8125 2.8125 C-1 1 -1 1 0 0 Z " fill="#343A3E" transform="translate(14,16)"/>
<path d="M0 0 C2.125 0.375 2.125 0.375 4 1 C4.38218767 2.65614657 4.71395102 4.32457024 5 6 C4 7 4 7 1.4375 7.0625 C0.2309375 7.0315625 0.2309375 7.0315625 -1 7 C-1.625 4.625 -1.625 4.625 -2 2 C-1.34 1.34 -0.68 0.68 0 0 Z " fill="#6D787E" transform="translate(19,7)"/>
<path d="M0 0 C2 0.25 2 0.25 4 1 C4.33 1.99 4.66 2.98 5 4 C3.824375 3.9690625 3.824375 3.9690625 2.625 3.9375 C0.01885039 3.81315937 0.01885039 3.81315937 -2 5 C-1.125 1.125 -1.125 1.125 0 0 Z " fill="#343B3F" transform="translate(19,7)"/>
</svg>
