<svg version="1.1" id="Layer_1" xmlns="http://www.w3.org/2000/svg" xmlns:xlink="http://www.w3.org/1999/xlink" x="0px" y="0px"
	 width="100%" viewBox="0 0 480 480" enable-background="new 0 0 480 480" xml:space="preserve">
<path fill="#1A97FE" opacity="1.000000" stroke="none" 
	d="
M286.000000,481.000000 
	C190.666672,481.000000 95.833336,481.000000 1.000000,481.000000 
	C1.000000,321.000000 1.000000,161.000000 1.000000,1.000000 
	C161.000000,1.000000 321.000000,1.000000 481.000000,1.000000 
	C481.000000,161.000000 481.000000,321.000000 481.000000,481.000000 
	C416.166656,481.000000 351.333344,481.000000 286.000000,481.000000 
M170.229843,96.818146 
	C170.006973,97.099831 169.784088,97.381516 169.656845,97.659889 
	C169.656845,97.659889 169.639130,97.565865 168.989273,97.794945 
	C167.245071,99.204308 165.500870,100.613663 163.712692,102.058563 
	C162.555344,98.998856 161.530746,96.290123 160.496994,93.498833 
	C160.496994,93.498833 160.414825,93.486725 159.882202,92.900665 
	C156.782883,92.619110 153.686676,92.147118 150.583588,92.096336 
	C144.457962,91.996086 144.008636,92.491806 144.002502,98.529266 
	C143.982391,118.314903 143.959000,138.100739 144.053940,157.885941 
	C144.062866,159.750076 144.895569,161.610260 145.446808,163.682755 
	C145.446808,163.682755 145.674759,163.632294 146.446548,164.036850 
	C152.228363,163.675400 158.010193,163.313950 164.255722,162.171356 
	C164.346466,146.132385 164.437210,130.093414 165.077087,113.478767 
	C171.667999,112.405876 178.236160,111.138359 184.861908,110.363251 
	C187.254349,110.083366 189.928925,110.284592 190.026138,107.414131 
	C190.196304,102.389694 189.644516,97.340805 189.395218,92.302162 
	C184.610855,92.792244 179.824493,93.264664 175.045547,93.802872 
	C174.620880,93.850693 174.244461,94.326630 173.219543,94.780479 
	C172.377502,95.421631 171.535477,96.062790 170.775146,96.737206 
	C170.775146,96.737206 170.756653,96.650940 170.229843,96.818146 
M166.851868,307.103516 
	C166.900360,306.735443 166.948853,306.367371 167.235657,305.088287 
	C167.262207,289.333679 167.335663,273.578979 167.295029,257.824554 
	C167.275391,250.211639 167.041260,242.599289 166.930862,234.479248 
	C166.671265,234.293823 166.411682,234.108398 165.541336,233.302902 
	C159.690063,233.295441 153.838776,233.287994 147.290970,233.398209 
	C146.748123,235.353867 145.744003,237.307037 145.733353,239.265594 
	C145.619400,260.245026 145.642883,281.225372 145.698181,302.205261 
	C145.702820,303.959503 146.211639,305.712402 146.563339,307.451202 
	C146.563339,307.451202 146.528000,307.521332 147.078323,308.087433 
	C153.540970,307.896912 160.003616,307.706390 166.488434,307.431030 
	C166.488434,307.431030 166.418015,307.483246 166.851868,307.103516 
M272.561584,256.770050 
	C272.561584,256.770050 272.544434,256.634735 272.088043,257.246552 
	C269.563660,267.916931 269.467285,278.508331 273.174042,289.692963 
	C277.686890,301.717590 286.578857,308.192627 299.029724,310.343109 
	C308.212799,311.929199 317.214203,311.236267 326.111115,308.691223 
	C334.783997,306.210236 334.683014,306.160980 334.619263,297.018341 
	C334.590820,292.940735 333.700806,291.529694 329.032562,292.477509 
	C322.105988,293.883911 314.947662,294.508270 307.867432,294.697906 
	C300.730011,294.889099 295.061218,291.687408 291.599792,284.203461 
	C291.154022,281.874390 290.708252,279.545319 290.473267,278.317474 
	C300.772949,277.537720 310.401917,276.808746 320.800262,276.078888 
	C328.239471,274.104065 334.300995,270.553558 336.656067,262.568420 
	C340.502472,249.526535 333.861816,236.901764 320.880219,233.044952 
	C311.975739,230.399460 302.886932,231.399826 294.218201,233.628265 
	C283.260315,236.445175 276.781219,244.564011 272.837982,255.542221 
	C272.719208,255.914658 272.600464,256.287079 272.561584,256.770050 
M219.119461,163.132706 
	C219.119461,163.132706 219.130188,163.211380 219.778564,162.613724 
	C219.888290,160.140274 220.101105,157.666428 220.091492,155.193436 
	C220.012238,134.818176 219.891724,114.443077 219.503113,93.339844 
	C213.790176,92.972466 208.079742,92.538849 202.361069,92.323448 
	C201.664093,92.297195 200.922943,93.443527 199.946030,94.946831 
	C199.919250,116.333336 199.874390,137.719864 199.907761,159.106277 
	C199.909912,160.483231 200.516083,161.859253 200.845215,163.156097 
	C200.845215,163.156097 200.765564,163.158768 201.344116,163.826828 
	C207.295639,163.593643 213.247162,163.360458 219.119461,163.132706 
M328.598480,163.674683 
	C334.495941,163.673386 340.393372,163.672089 346.582977,163.707153 
	C346.582977,163.707153 346.723114,163.448242 347.280853,162.895050 
	C347.482452,162.108795 347.858612,161.322830 347.859955,160.536240 
	C347.888672,143.467560 347.895538,126.398750 347.834839,109.330215 
	C347.829681,107.880501 347.319427,106.432579 347.058960,104.235275 
	C343.608856,93.376091 334.935303,88.030426 322.381744,90.471626 
	C314.756012,91.954536 307.489929,95.286758 299.949799,97.826096 
	C285.688263,83.588898 271.070831,90.849335 256.119629,98.940193 
	C255.936356,92.535934 252.040405,91.613350 247.132599,92.069466 
	C245.647766,92.207451 244.134552,92.169800 242.642761,92.077087 
	C239.077652,91.855522 237.523621,93.353554 237.538834,97.039391 
	C237.624710,117.838860 237.635757,138.639145 237.529877,159.438416 
	C237.513046,162.745453 239.311615,164.023666 241.961975,164.016113 
	C247.277771,164.000946 252.592316,163.549774 258.164551,163.265457 
	C258.164551,147.744385 258.164581,133.281189 258.164551,118.818001 
	C258.164520,108.423668 258.162720,108.414703 268.367615,106.411972 
	C269.504211,106.188911 270.674164,106.132721 271.829834,106.010498 
	C276.844452,105.480148 280.625916,107.123642 282.476105,113.012955 
	C282.511292,115.819916 282.553345,118.626801 282.580444,121.433838 
	C282.711029,134.959183 282.837616,148.484573 282.916656,162.562576 
	C283.302155,162.932358 283.687653,163.302139 284.951874,163.987686 
	C290.710052,163.639420 296.468262,163.291168 302.787384,162.320953 
	C302.871826,147.858383 302.980499,133.395889 303.032837,118.933189 
	C303.072571,107.953125 303.040314,107.950691 314.010162,106.213036 
	C314.665375,106.109238 315.332764,106.071671 315.996185,106.031837 
	C322.903748,105.617081 324.792114,106.780434 327.305847,113.973885 
	C327.327667,128.375504 327.321594,142.777267 327.404358,157.178558 
	C327.415436,159.109268 327.875275,161.037415 328.598480,163.674683 
M255.968185,305.040436 
	C255.920227,270.712311 255.872284,236.384201 255.841660,201.271393 
	C254.056595,200.473892 252.256866,198.974243 250.489227,199.011169 
	C245.280991,199.119980 240.085480,199.837662 233.985764,200.399933 
	C233.985764,206.096100 233.985764,212.034622 233.985764,217.973145 
	C233.985764,224.005112 233.985764,230.037079 233.985764,236.851105 
	C231.488358,235.554474 230.059326,234.775909 228.599472,234.060242 
	C212.368134,226.103119 194.729126,231.687088 186.441650,247.615921 
	C180.763992,258.528534 179.972290,270.270203 182.171829,282.114532 
	C186.987778,308.047638 210.647812,318.177490 232.716431,304.005157 
	C233.522064,303.487793 234.507080,303.249817 235.533813,303.607819 
	C235.807755,307.555267 238.038834,309.070465 241.845810,308.907776 
	C244.995102,308.773224 248.200134,309.187195 251.290375,308.738159 
	C252.889420,308.505798 254.292770,306.926819 255.968185,305.040436 
M111.233421,300.376678 
	C114.037689,293.267517 116.879410,286.172882 119.638168,279.046112 
	C124.857239,265.563507 130.066559,252.076874 135.199265,238.561264 
	C136.984467,233.860413 136.320679,232.957901 131.374847,232.868378 
	C127.879120,232.805115 124.361824,233.088257 120.889267,232.797501 
	C116.188438,232.403900 114.046501,234.521027 112.800865,238.914581 
	C108.633102,253.614944 104.160622,268.229034 99.779465,282.868591 
	C99.333420,284.359039 98.716202,285.798248 97.643593,288.716156 
	C96.674477,285.767761 96.138184,284.280426 95.695190,282.765808 
	C91.825447,269.535004 87.979645,256.297150 84.112045,243.065720 
	C81.126343,232.851379 81.116943,232.854111 70.690613,232.854065 
	C68.692413,232.854050 66.694061,232.838699 64.696037,232.857346 
	C58.801857,232.912338 58.153553,233.714523 60.296417,239.312897 
	C65.997147,254.206375 71.758736,269.077545 77.638954,283.900940 
	C80.749435,291.742096 84.157677,299.465118 87.924149,307.902588 
	C92.161484,308.230255 96.395088,308.763397 100.636978,308.840363 
	C108.151855,308.976807 108.553864,308.551056 111.233421,300.376678 
M61.467697,192.940948 
	C65.290245,192.986343 69.112724,193.062012 72.935356,193.070602 
	C80.051674,193.086594 80.060234,193.070343 80.068001,185.921814 
	C80.077309,177.354538 80.070198,168.787216 80.070198,159.467957 
	C81.737198,160.325592 82.577576,160.718384 83.380463,161.176834 
	C101.176987,171.339005 120.092484,164.624588 127.161980,145.436356 
	C131.251099,134.337509 131.362122,122.926514 128.124405,111.630745 
	C123.361938,95.015495 109.421959,86.834274 92.693535,91.134705 
	C87.590782,92.446487 82.949097,95.551773 78.818718,97.495667 
	C77.092110,95.692749 75.567421,92.667038 73.646194,92.389862 
	C69.513016,91.793541 65.175697,92.612190 60.178795,93.160370 
	C59.857418,94.918877 59.259315,96.676834 59.255890,98.435966 
	C59.198368,127.965271 59.188213,157.494797 59.280106,187.023941 
	C59.285786,188.848267 60.225067,190.669678 61.467697,192.940948 
M287.356476,395.919495 
	C279.064209,396.562805 270.782257,397.518799 262.477783,397.793213 
	C232.750565,398.775513 203.392609,395.714142 174.313843,389.496002 
	C136.452957,381.399872 100.853630,367.598907 67.527870,347.898376 
	C65.510094,346.705597 62.919392,344.240967 61.238049,347.507507 
	C60.577606,348.790619 62.072720,352.155548 63.563778,353.415588 
	C73.089035,361.465027 82.411942,369.887177 92.679787,376.900757 
	C130.153336,402.497467 171.604324,417.752991 216.803970,422.295990 
	C266.901245,427.331299 314.909882,419.307892 360.460968,397.767456 
	C369.740875,393.379150 378.356354,387.577179 387.234070,382.352051 
	C390.151917,380.634705 392.599518,378.170868 390.661438,374.632538 
	C388.851868,371.328888 385.484619,371.525635 382.249420,372.664917 
	C381.150055,373.052063 380.047729,373.433960 378.963806,373.861542 
	C349.745880,385.387115 319.357544,392.095367 287.356476,395.919495 
M409.582001,304.144928 
	C416.116577,299.056976 421.160767,292.591644 422.074921,284.410583 
	C423.059052,275.603790 423.665527,266.382263 422.132538,257.750946 
	C419.614227,243.571838 410.333130,234.405914 395.922607,231.902298 
	C389.630585,230.809189 382.889313,230.856110 376.552368,231.771805 
	C363.775299,233.618118 355.185547,241.297028 350.918915,253.448730 
	C346.878357,264.956543 346.928497,276.655548 350.887451,288.164673 
	C354.253357,297.949829 360.634155,305.176758 370.695007,308.470612 
	C383.988647,312.822784 396.870483,312.172699 409.582001,304.144928 
M380.217163,140.858017 
	C379.754272,138.678802 379.291351,136.499603 378.771851,134.053955 
	C387.842651,134.053955 396.344757,134.785660 404.666229,133.872055 
	C415.502808,132.682297 422.430725,126.009056 423.588562,117.526672 
	C425.284424,105.102707 418.738434,94.822823 406.438171,92.127411 
	C401.449646,91.034256 396.001587,92.236862 390.794373,91.901527 
	C380.156891,91.216499 372.738708,96.547379 366.990997,104.572746 
	C359.659424,114.809692 359.005341,126.433014 360.818024,138.491135 
	C362.971863,152.818756 371.577545,162.586121 385.741425,165.466644 
	C396.375092,167.629211 406.946381,166.614609 417.151825,162.802811 
	C420.672882,161.487671 422.918091,152.254166 420.407562,149.384155 
	C419.791656,148.680069 418.301270,148.276016 417.324280,148.431931 
	C412.724762,149.166000 408.069885,149.816376 403.609100,151.101608 
	C394.507233,153.723999 384.920746,149.952133 380.217163,140.858017 
M410.617981,397.119293 
	C418.304413,384.789551 423.218811,371.580811 423.682129,356.883240 
	C423.834961,352.035004 422.065521,349.158478 417.164154,347.810974 
	C403.519196,344.059814 389.839447,344.028809 376.336212,347.782257 
	C370.032990,349.534332 364.102966,352.727234 358.160126,355.591370 
	C357.021759,356.139984 356.613800,358.204041 355.868866,359.568939 
	C357.347656,360.019928 358.804199,360.589783 360.314514,360.872284 
	C361.081482,361.015747 361.942108,360.542877 362.765839,360.515991 
	C373.382996,360.169617 384.071869,358.946655 394.600342,359.768402 
	C406.669464,360.710358 408.558685,363.996307 405.175323,375.972260 
	C402.294342,386.170105 398.276855,396.044128 394.897797,406.106964 
	C394.371704,407.673645 394.569946,409.483582 394.433228,411.181030 
	C396.207977,410.682037 398.515259,410.720184 399.659760,409.585510 
	C403.412384,405.865173 406.742432,401.718628 410.617981,397.119293 
M144.576523,205.480637 
	C143.026505,210.768005 143.851364,215.534531 148.567780,218.728928 
	C153.352722,221.969742 158.613998,221.902420 163.651596,219.117935 
	C168.395096,216.496002 169.337982,212.046997 168.675903,207.112061 
	C168.033646,202.324951 164.455460,198.913605 159.418045,198.030212 
	C152.795929,196.868942 148.293015,198.927399 144.576523,205.480637 
M220.453339,75.676216 
	C220.826141,74.587929 221.324631,73.524994 221.550125,72.406998 
	C222.557892,67.410332 220.482269,62.736004 216.367203,60.544090 
	C211.858292,58.142387 204.768845,58.827896 201.346695,61.996498 
	C198.113159,64.990479 197.112717,70.553375 199.026550,74.897491 
	C202.291458,82.308334 213.570969,83.092278 220.453339,75.676216 
z"/>
<path fill="#000203" opacity="1.000000" stroke="none" 
	d="
M287.810852,395.914001 
	C319.357544,392.095367 349.745880,385.387115 378.963806,373.861542 
	C380.047729,373.433960 381.150055,373.052063 382.249420,372.664917 
	C385.484619,371.525635 388.851868,371.328888 390.661438,374.632538 
	C392.599518,378.170868 390.151917,380.634705 387.234070,382.352051 
	C378.356354,387.577179 369.740875,393.379150 360.460968,397.767456 
	C314.909882,419.307892 266.901245,427.331299 216.803970,422.295990 
	C171.604324,417.752991 130.153336,402.497467 92.679787,376.900757 
	C82.411942,369.887177 73.089035,361.465027 63.563778,353.415588 
	C62.072720,352.155548 60.577606,348.790619 61.238049,347.507507 
	C62.919392,344.240967 65.510094,346.705597 67.527870,347.898376 
	C100.853630,367.598907 136.452957,381.399872 174.313843,389.496002 
	C203.392609,395.714142 232.750565,398.775513 262.477783,397.793213 
	C270.782257,397.518799 279.064209,396.562805 287.810852,395.914001 
z"/>
<path fill="#01081E" opacity="1.000000" stroke="none" 
	d="
M282.518799,112.086914 
	C280.625916,107.123642 276.844452,105.480148 271.829834,106.010498 
	C270.674164,106.132721 269.504211,106.188911 268.367615,106.411972 
	C258.162720,108.414703 258.164520,108.423668 258.164551,118.818001 
	C258.164581,133.281189 258.164551,147.744385 258.164551,163.265457 
	C252.592316,163.549774 247.277771,164.000946 241.961975,164.016113 
	C239.311615,164.023666 237.513046,162.745453 237.529877,159.438416 
	C237.635757,138.639145 237.624710,117.838860 237.538834,97.039391 
	C237.523621,93.353554 239.077652,91.855522 242.642761,92.077087 
	C244.134552,92.169800 245.647766,92.207451 247.132599,92.069466 
	C252.040405,91.613350 255.936356,92.535934 256.119629,98.940193 
	C271.070831,90.849335 285.688263,83.588898 299.949799,97.826096 
	C307.489929,95.286758 314.756012,91.954536 322.381744,90.471626 
	C334.935303,88.030426 343.608856,93.376091 346.839600,104.964874 
	C346.429962,107.664421 346.082184,109.633789 346.074829,111.604416 
	C346.025787,124.748253 345.996674,137.892700 346.080261,151.036179 
	C346.106567,155.174728 346.498535,159.310959 346.723114,163.448242 
	C346.723114,163.448242 346.582977,163.707153 345.955017,163.558044 
	C339.854492,163.239304 334.381958,163.069672 328.931763,162.438141 
	C328.970886,147.288864 329.037659,132.601135 328.934082,117.914604 
	C328.922638,116.289108 327.938507,114.670471 327.405487,113.048653 
	C324.792114,106.780434 322.903748,105.617081 315.996185,106.031837 
	C315.332764,106.071671 314.665375,106.109238 314.010162,106.213036 
	C303.040314,107.950691 303.072571,107.953125 303.032837,118.933189 
	C302.980499,133.395889 302.871826,147.858383 302.023193,162.637360 
	C295.530396,163.193161 289.801758,163.432541 284.073151,163.671921 
	C283.687653,163.302139 283.302155,162.932358 283.168335,161.939240 
	C283.605438,160.515305 283.950317,159.715164 283.952515,158.914078 
	C283.991608,144.649734 284.028656,130.384995 283.931122,116.121284 
	C283.921906,114.773338 283.011047,113.431557 282.518799,112.086914 
z"/>
<path fill="#01071C" opacity="1.000000" stroke="none" 
	d="
M235.408508,302.881622 
	C234.507080,303.249817 233.522064,303.487793 232.716431,304.005157 
	C210.647812,318.177490 186.987778,308.047638 182.171829,282.114532 
	C179.972290,270.270203 180.763992,258.528534 186.441650,247.615921 
	C194.729126,231.687088 212.368134,226.103119 228.599472,234.060242 
	C230.059326,234.775909 231.488358,235.554474 233.985764,236.851105 
	C233.985764,230.037079 233.985764,224.005112 233.985764,217.973145 
	C233.985764,212.034622 233.985764,206.096100 233.985764,200.399933 
	C240.085480,199.837662 245.280991,199.119980 250.489227,199.011169 
	C252.256866,198.974243 254.056595,200.473892 255.641357,202.022980 
	C255.292007,204.253113 255.013596,205.731598 255.012970,207.210220 
	C254.999191,240.128006 255.016052,273.045807 254.647766,306.146606 
	C247.686401,306.796051 240.653122,309.730713 235.408508,302.881622 
M234.995880,288.640167 
	C235.272507,288.042389 235.785767,287.446564 235.790680,286.846619 
	C235.880600,275.858826 235.951019,264.870270 235.878433,253.882874 
	C235.872147,252.930649 234.836517,251.985229 233.718399,250.563431 
	C231.115585,249.520294 228.596252,248.106339 225.895493,247.498291 
	C214.273010,244.881546 206.415894,249.210037 204.493546,259.940460 
	C203.458435,265.718384 203.206985,271.889008 203.994843,277.693390 
	C206.251053,294.316071 220.972412,299.769745 234.995880,288.640167 
z"/>
<path fill="#01071C" opacity="1.000000" stroke="none" 
	d="
M60.921936,92.851685 
	C65.175697,92.612190 69.513016,91.793541 73.646194,92.389862 
	C75.567421,92.667038 77.092110,95.692749 78.818718,97.495667 
	C82.949097,95.551773 87.590782,92.446487 92.693535,91.134705 
	C109.421959,86.834274 123.361938,95.015495 128.124405,111.630745 
	C131.362122,122.926514 131.251099,134.337509 127.161980,145.436356 
	C120.092484,164.624588 101.176987,171.339005 83.380463,161.176834 
	C82.577576,160.718384 81.737198,160.325592 80.070198,159.467957 
	C80.070198,168.787216 80.077309,177.354538 80.068001,185.921814 
	C80.060234,193.070343 80.051674,193.086594 72.935356,193.070602 
	C69.112724,193.062012 65.290245,192.986343 61.098953,192.215439 
	C60.794113,158.610519 60.858025,125.731102 60.921936,92.851685 
M109.466492,125.840988 
	C109.261063,123.689217 109.157051,121.522003 108.831955,119.388466 
	C107.671288,111.771202 103.820999,106.569443 97.965385,106.249229 
	C93.270874,105.992508 88.479240,107.009705 83.769432,107.718834 
	C80.838776,108.160080 79.936676,110.176613 79.994629,113.147758 
	C80.166458,121.958908 80.056282,130.775558 80.056328,139.590057 
	C80.056366,147.415329 80.649773,148.136688 88.348297,149.669495 
	C100.900085,152.168594 107.698677,147.084183 109.017761,134.162369 
	C109.270607,131.685547 109.356705,129.191681 109.466492,125.840988 
z"/>
<path fill="#01071C" opacity="1.000000" stroke="none" 
	d="
M409.286560,304.352661 
	C396.870483,312.172699 383.988647,312.822784 370.695007,308.470612 
	C360.634155,305.176758 354.253357,297.949829 350.887451,288.164673 
	C346.928497,276.655548 346.878357,264.956543 350.918915,253.448730 
	C355.185547,241.297028 363.775299,233.618118 376.552368,231.771805 
	C382.889313,230.856110 389.630585,230.809189 395.922607,231.902298 
	C410.333130,234.405914 419.614227,243.571838 422.132538,257.750946 
	C423.665527,266.382263 423.059052,275.603790 422.074921,284.410583 
	C421.160767,292.591644 416.116577,299.056976 409.286560,304.352661 
M370.740448,278.617859 
	C371.055939,280.075775 371.270172,281.564575 371.703796,282.986450 
	C374.028412,290.608795 379.026764,294.663788 385.989044,294.654968 
	C393.070862,294.645996 398.574554,290.274261 400.413757,282.530457 
	C402.440887,273.995544 402.600861,265.346893 399.699371,256.947052 
	C397.492584,250.558319 392.913330,247.380219 386.653137,247.229797 
	C379.692261,247.062561 374.645050,249.479263 372.857422,256.262024 
	C371.040619,263.155609 371.230377,270.578033 370.740448,278.617859 
z"/>
<path fill="#01081C" opacity="1.000000" stroke="none" 
	d="
M273.082184,255.008224 
	C276.781219,244.564011 283.260315,236.445175 294.218201,233.628265 
	C302.886932,231.399826 311.975739,230.399460 320.880219,233.044952 
	C333.861816,236.901764 340.502472,249.526535 336.656067,262.568420 
	C334.300995,270.553558 328.239471,274.104065 320.109039,275.882721 
	C310.299591,275.536652 301.181244,275.322205 292.063324,275.338745 
	C291.171600,275.340332 289.435394,276.912201 289.538757,277.501221 
	C289.987335,280.057770 290.972809,282.520111 291.763123,285.016693 
	C295.061218,291.687408 300.730011,294.889099 307.867432,294.697906 
	C314.947662,294.508270 322.105988,293.883911 329.032562,292.477509 
	C333.700806,291.529694 334.590820,292.940735 334.619263,297.018341 
	C334.683014,306.160980 334.783997,306.210236 326.111115,308.691223 
	C317.214203,311.236267 308.212799,311.929199 299.029724,310.343109 
	C286.578857,308.192627 277.686890,301.717590 273.316711,289.032562 
	C272.971710,281.706390 272.322845,275.046997 272.057922,268.372375 
	C271.903168,264.472412 272.361786,260.548096 272.544434,256.634735 
	C272.544434,256.634735 272.561584,256.770050 272.739746,256.646240 
	C272.972687,256.017670 273.027435,255.512955 273.082184,255.008224 
M296.845551,249.229599 
	C292.645142,252.987091 290.958130,257.799103 290.454559,264.109558 
	C297.644440,264.109558 304.422363,264.648560 311.064331,263.930267 
	C315.928558,263.404236 318.438263,259.104889 317.885834,254.443542 
	C317.326233,249.721725 314.629547,246.401291 309.866699,246.451538 
	C305.717712,246.495316 301.583649,247.949844 296.845551,249.229599 
z"/>
<path fill="#01081C" opacity="1.000000" stroke="none" 
	d="
M380.352448,141.230698 
	C384.920746,149.952133 394.507233,153.723999 403.609100,151.101608 
	C408.069885,149.816376 412.724762,149.166000 417.324280,148.431931 
	C418.301270,148.276016 419.791656,148.680069 420.407562,149.384155 
	C422.918091,152.254166 420.672882,161.487671 417.151825,162.802811 
	C406.946381,166.614609 396.375092,167.629211 385.741425,165.466644 
	C371.577545,162.586121 362.971863,152.818756 360.818024,138.491135 
	C359.005341,126.433014 359.659424,114.809692 366.990997,104.572746 
	C372.738708,96.547379 380.156891,91.216499 390.794373,91.901527 
	C396.001587,92.236862 401.449646,91.034256 406.438171,92.127411 
	C418.738434,94.822823 425.284424,105.102707 423.588562,117.526672 
	C422.430725,126.009056 415.502808,132.682297 404.666229,133.872055 
	C396.344757,134.785660 387.842651,134.053955 378.771851,134.053955 
	C379.291351,136.499603 379.754272,138.678802 380.352448,141.230698 
M382.140594,121.854912 
	C387.265045,121.873932 392.415070,122.213516 397.505676,121.807800 
	C401.390961,121.498146 404.395538,119.305870 404.865417,114.983536 
	C405.267151,111.288132 404.453796,108.047691 400.768555,106.178215 
	C391.454559,101.453415 379.084320,109.080254 379.374725,119.472084 
	C379.396362,120.246063 380.618347,120.986496 382.140594,121.854912 
z"/>
<path fill="#01071C" opacity="1.000000" stroke="none" 
	d="
M87.431496,307.241455 
	C84.157677,299.465118 80.749435,291.742096 77.638954,283.900940 
	C71.758736,269.077545 65.997147,254.206375 60.296417,239.312897 
	C58.153553,233.714523 58.801857,232.912338 64.696037,232.857346 
	C66.694061,232.838699 68.692413,232.854050 70.690613,232.854065 
	C81.116943,232.854111 81.126343,232.851379 84.112045,243.065720 
	C87.979645,256.297150 91.825447,269.535004 95.695190,282.765808 
	C96.138184,284.280426 96.674477,285.767761 97.643593,288.716156 
	C98.716202,285.798248 99.333420,284.359039 99.779465,282.868591 
	C104.160622,268.229034 108.633102,253.614944 112.800865,238.914581 
	C114.046501,234.521027 116.188438,232.403900 120.889267,232.797501 
	C124.361824,233.088257 127.879120,232.805115 131.374847,232.868378 
	C136.320679,232.957901 136.984467,233.860413 135.199265,238.561264 
	C130.066559,252.076874 124.857239,265.563507 119.638168,279.046112 
	C116.879410,286.172882 114.037689,293.267517 110.728691,300.821777 
	C108.116508,306.577576 103.974487,307.596741 98.766335,307.134216 
	C95.020775,306.801605 91.212044,307.180145 87.431496,307.241455 
z"/>
<path fill="#01081E" opacity="1.000000" stroke="none" 
	d="
M173.845627,94.603737 
	C174.244461,94.326630 174.620880,93.850693 175.045547,93.802872 
	C179.824493,93.264664 184.610855,92.792244 189.395218,92.302162 
	C189.644516,97.340805 190.196304,102.389694 190.026138,107.414131 
	C189.928925,110.284592 187.254349,110.083366 184.861908,110.363251 
	C178.236160,111.138359 171.667999,112.405876 164.514954,113.991470 
	C163.634460,115.740395 163.041656,116.976151 163.039490,118.212936 
	C163.013367,133.099487 163.074631,147.986191 162.635834,162.921051 
	C156.663971,163.190262 151.169357,163.411285 145.674759,163.632294 
	C145.674759,163.632294 145.446808,163.682755 145.521271,163.087036 
	C145.717682,160.176620 145.941711,157.862091 145.945419,155.547180 
	C145.974655,137.294922 145.954620,119.042603 145.965652,100.790306 
	C145.969757,93.996666 145.989594,94.034584 152.981461,93.944214 
	C155.460815,93.912186 157.937119,93.646011 160.414825,93.486725 
	C160.414825,93.486725 160.496994,93.498833 160.470306,93.945251 
	C160.703766,95.850449 160.746262,97.395920 161.283432,98.744324 
	C161.854462,100.177666 162.695618,102.265411 163.783844,102.522514 
	C164.937943,102.795189 166.659622,101.422523 167.868912,100.442139 
	C168.693985,99.773247 169.065063,98.544365 169.639130,97.565865 
	C169.639130,97.565865 169.656845,97.659889 169.856567,97.554596 
	C170.289749,97.183182 170.523209,96.917068 170.756653,96.650940 
	C170.756653,96.650940 170.775146,96.737206 171.078445,96.703117 
	C172.203033,95.980598 173.024338,95.292168 173.845627,94.603737 
z"/>
<path fill="#000305" opacity="1.000000" stroke="none" 
	d="
M410.426453,397.427582 
	C406.742432,401.718628 403.412384,405.865173 399.659760,409.585510 
	C398.515259,410.720184 396.207977,410.682037 394.433228,411.181030 
	C394.569946,409.483582 394.371704,407.673645 394.897797,406.106964 
	C398.276855,396.044128 402.294342,386.170105 405.175323,375.972260 
	C408.558685,363.996307 406.669464,360.710358 394.600342,359.768402 
	C384.071869,358.946655 373.382996,360.169617 362.765839,360.515991 
	C361.942108,360.542877 361.081482,361.015747 360.314514,360.872284 
	C358.804199,360.589783 357.347656,360.019928 355.868896,359.568970 
	C356.613800,358.204041 357.021759,356.139984 358.160126,355.591370 
	C364.102966,352.727234 370.032990,349.534332 376.336212,347.782257 
	C389.839447,344.028809 403.519196,344.059814 417.164154,347.810974 
	C422.065521,349.158478 423.834961,352.035004 423.682129,356.883240 
	C423.218811,371.580811 418.304413,384.789551 410.426453,397.427582 
z"/>
<path fill="#01061B" opacity="1.000000" stroke="none" 
	d="
M147.987503,233.280548 
	C153.838776,233.287994 159.690063,233.295441 165.780304,233.765930 
	C166.314270,234.481537 166.609253,234.734116 166.904236,234.986679 
	C167.041260,242.599289 167.275391,250.211639 167.295029,257.824554 
	C167.335663,273.578979 167.262207,289.333679 166.968765,305.767670 
	C166.607254,306.792450 166.512634,307.137848 166.418030,307.483246 
	C166.418015,307.483246 166.488434,307.431030 165.983978,307.357483 
	C159.162354,307.363037 152.845184,307.442200 146.528000,307.521332 
	C146.528000,307.521332 146.563339,307.451202 146.639740,306.964111 
	C146.813019,284.867584 146.875916,263.257874 147.048477,241.649017 
	C147.070770,238.857193 147.660583,236.069931 147.987503,233.280548 
z"/>
<path fill="#01061B" opacity="1.000000" stroke="none" 
	d="
M200.202271,94.046432 
	C200.922943,93.443527 201.664093,92.297195 202.361069,92.323448 
	C208.079742,92.538849 213.790176,92.972466 219.461700,94.066818 
	C219.284653,95.610909 219.030106,96.428123 219.030746,97.245132 
	C219.047928,119.233894 219.091263,141.222641 219.130188,163.211380 
	C219.130188,163.211380 219.119461,163.132706 218.677200,163.095947 
	C212.411819,163.092392 206.588684,163.125580 200.765564,163.158768 
	C200.765564,163.158768 200.845215,163.156097 200.883514,162.710709 
	C200.947495,140.976868 200.988861,119.688408 200.964432,98.400017 
	C200.962769,96.948540 200.467804,95.497620 200.202271,94.046432 
z"/>
<path fill="#01081E" opacity="1.000000" stroke="none" 
	d="
M144.687927,205.096832 
	C148.293015,198.927399 152.795929,196.868942 159.418045,198.030212 
	C164.455460,198.913605 168.033646,202.324951 168.675903,207.112061 
	C169.337982,212.046997 168.395096,216.496002 163.651596,219.117935 
	C158.613998,221.902420 153.352722,221.969742 148.567780,218.728928 
	C143.851364,215.534531 143.026505,210.768005 144.687927,205.096832 
z"/>
<path fill="#02091E" opacity="1.000000" stroke="none" 
	d="
M220.274292,76.019005 
	C213.570969,83.092278 202.291458,82.308334 199.026550,74.897491 
	C197.112717,70.553375 198.113159,64.990479 201.346695,61.996498 
	C204.768845,58.827896 211.858292,58.142387 216.367203,60.544090 
	C220.482269,62.736004 222.557892,67.410332 221.550125,72.406998 
	C221.324631,73.524994 220.826141,74.587929 220.274292,76.019005 
z"/>
<path fill="#06203F" opacity="1.000000" stroke="none" 
	d="
M60.550362,93.006027 
	C60.858025,125.731102 60.794113,158.610519 60.730091,191.991180 
	C60.225067,190.669678 59.285786,188.848267 59.280106,187.023941 
	C59.188213,157.494797 59.198368,127.965271 59.255890,98.435966 
	C59.259315,96.676834 59.857418,94.918877 60.550362,93.006027 
z"/>
<path fill="#031329" opacity="1.000000" stroke="none" 
	d="
M160.148514,93.193695 
	C157.937119,93.646011 155.460815,93.912186 152.981461,93.944214 
	C145.989594,94.034584 145.969757,93.996666 145.965652,100.790306 
	C145.954620,119.042603 145.974655,137.294922 145.945419,155.547180 
	C145.941711,157.862091 145.717682,160.176620 145.470764,162.981812 
	C144.895569,161.610260 144.062866,159.750076 144.053940,157.885941 
	C143.959000,138.100739 143.982391,118.314903 144.002502,98.529266 
	C144.008636,92.491806 144.457962,91.996086 150.583588,92.096336 
	C153.686676,92.147118 156.782883,92.619110 160.148514,93.193695 
z"/>
<path fill="#010A12" opacity="1.000000" stroke="none" 
	d="
M147.639236,233.339386 
	C147.660583,236.069931 147.070770,238.857193 147.048477,241.649017 
	C146.875916,263.257874 146.813019,284.867584 146.601181,306.971497 
	C146.211639,305.712402 145.702820,303.959503 145.698181,302.205261 
	C145.642883,281.225372 145.619400,260.245026 145.733353,239.265594 
	C145.744003,237.307037 146.748123,235.353867 147.639236,233.339386 
z"/>
<path fill="#02152B" opacity="1.000000" stroke="none" 
	d="
M347.001984,163.171646 
	C346.498535,159.310959 346.106567,155.174728 346.080261,151.036179 
	C345.996674,137.892700 346.025787,124.748253 346.074829,111.604416 
	C346.082184,109.633789 346.429962,107.664421 346.832031,105.339149 
	C347.319427,106.432579 347.829681,107.880501 347.834839,109.330215 
	C347.895538,126.398750 347.888672,143.467560 347.859955,160.536240 
	C347.858612,161.322830 347.482452,162.108795 347.001984,163.171646 
z"/>
<path fill="#000000" opacity="1.000000" stroke="none" 
	d="
M255.027084,305.963623 
	C255.016052,273.045807 254.999191,240.128006 255.012970,207.210220 
	C255.013596,205.731598 255.292007,204.253113 255.632690,202.415329 
	C255.872284,236.384201 255.920227,270.712311 255.686920,305.492126 
	C255.405655,305.943848 255.027084,305.963623 255.027084,305.963623 
z"/>
<path fill="#000000" opacity="1.000000" stroke="none" 
	d="
M327.355652,113.511269 
	C327.938507,114.670471 328.922638,116.289108 328.934082,117.914604 
	C329.037659,132.601135 328.970886,147.288864 328.735626,162.442749 
	C328.517151,162.909271 328.127319,162.966751 328.127319,162.966751 
	C327.875275,161.037415 327.415436,159.109268 327.404358,157.178558 
	C327.321594,142.777267 327.327667,128.375504 327.355652,113.511269 
z"/>
<path fill="#000000" opacity="1.000000" stroke="none" 
	d="
M163.113098,162.872864 
	C163.074631,147.986191 163.013367,133.099487 163.039490,118.212936 
	C163.041656,116.976151 163.634460,115.740395 164.240387,114.279297 
	C164.437210,130.093414 164.346466,146.132385 163.855484,162.530518 
	C163.455246,162.889664 163.113098,162.872864 163.113098,162.872864 
z"/>
<path fill="#031329" opacity="1.000000" stroke="none" 
	d="
M291.681458,284.610077 
	C290.972809,282.520111 289.987335,280.057770 289.538757,277.501221 
	C289.435394,276.912201 291.171600,275.340332 292.063324,275.338745 
	C301.181244,275.322205 310.299591,275.536652 319.724365,275.883148 
	C310.401917,276.808746 300.772949,277.537720 290.473267,278.317474 
	C290.708252,279.545319 291.154022,281.874390 291.681458,284.610077 
z"/>
<path fill="#000000" opacity="1.000000" stroke="none" 
	d="
M200.074142,94.496628 
	C200.467804,95.497620 200.962769,96.948540 200.964432,98.400017 
	C200.988861,119.688408 200.947495,140.976868 200.881531,162.750519 
	C200.516083,161.859253 199.909912,160.483231 199.907761,159.106277 
	C199.874390,137.719864 199.919250,116.333336 200.074142,94.496628 
z"/>
<path fill="#000000" opacity="1.000000" stroke="none" 
	d="
M219.454376,162.912552 
	C219.091263,141.222641 219.047928,119.233894 219.030746,97.245132 
	C219.030106,96.428123 219.284653,95.610909 219.601990,94.430862 
	C219.891724,114.443077 220.012238,134.818176 220.091492,155.193436 
	C220.101105,157.666428 219.888290,160.140274 219.454376,162.912552 
z"/>
<path fill="#02091E" opacity="1.000000" stroke="none" 
	d="
M272.316223,256.940643 
	C272.361786,260.548096 271.903168,264.472412 272.057922,268.372375 
	C272.322845,275.046997 272.971710,281.706390 273.289917,288.674927 
	C269.467285,278.508331 269.563660,267.916931 272.316223,256.940643 
z"/>
<path fill="#02152B" opacity="1.000000" stroke="none" 
	d="
M87.677826,307.572021 
	C91.212044,307.180145 95.020775,306.801605 98.766335,307.134216 
	C103.974487,307.596741 108.116508,306.577576 110.528473,301.126953 
	C108.553864,308.551056 108.151855,308.976807 100.636978,308.840363 
	C96.395088,308.763397 92.161484,308.230255 87.677826,307.572021 
z"/>
<path fill="#000000" opacity="1.000000" stroke="none" 
	d="
M282.497437,112.549934 
	C283.011047,113.431557 283.921906,114.773338 283.931122,116.121284 
	C284.028656,130.384995 283.991608,144.649734 283.952515,158.914078 
	C283.950317,159.715164 283.605438,160.515305 283.192810,161.662918 
	C282.837616,148.484573 282.711029,134.959183 282.580444,121.433838 
	C282.553345,118.626801 282.511292,115.819916 282.497437,112.549934 
z"/>
<path fill="#02152B" opacity="1.000000" stroke="none" 
	d="
M254.647766,306.146606 
	C255.027084,305.963623 255.405655,305.943848 255.595093,305.950012 
	C254.292770,306.926819 252.889420,308.505798 251.290375,308.738159 
	C248.200134,309.187195 244.995102,308.773224 241.845810,308.907776 
	C238.038834,309.070465 235.807755,307.555267 235.471161,303.244720 
	C240.653122,309.730713 247.686401,306.796051 254.647766,306.146606 
z"/>
<path fill="#010A12" opacity="1.000000" stroke="none" 
	d="
M146.803162,307.804382 
	C152.845184,307.442200 159.162354,307.363037 165.972900,307.399902 
	C160.003616,307.706390 153.540970,307.896912 146.803162,307.804382 
z"/>
<path fill="#031329" opacity="1.000000" stroke="none" 
	d="
M169.314209,97.680405 
	C169.065063,98.544365 168.693985,99.773247 167.868912,100.442139 
	C166.659622,101.422523 164.937943,102.795189 163.783844,102.522514 
	C162.695618,102.265411 161.854462,100.177666 161.283432,98.744324 
	C160.746262,97.395920 160.703766,95.850449 160.474899,93.986526 
	C161.530746,96.290123 162.555344,98.998856 163.712692,102.058563 
	C165.500870,100.613663 167.245071,99.204308 169.314209,97.680405 
z"/>
<path fill="#031329" opacity="1.000000" stroke="none" 
	d="
M162.635834,162.921051 
	C163.113098,162.872864 163.455246,162.889664 163.623627,162.921082 
	C158.010193,163.313950 152.228363,163.675400 146.060654,163.834564 
	C151.169357,163.411285 156.663971,163.190262 162.635834,162.921051 
z"/>
<path fill="#02152B" opacity="1.000000" stroke="none" 
	d="
M328.362915,163.320709 
	C328.127319,162.966751 328.517151,162.909271 328.713257,162.904663 
	C334.381958,163.069672 339.854492,163.239304 345.808960,163.539856 
	C340.393372,163.672089 334.495941,163.673386 328.362915,163.320709 
z"/>
<path fill="#000000" opacity="1.000000" stroke="none" 
	d="
M284.512512,163.829803 
	C289.801758,163.432541 295.530396,163.193161 301.742737,162.948349 
	C296.468262,163.291168 290.710052,163.639420 284.512512,163.829803 
z"/>
<path fill="#000000" opacity="1.000000" stroke="none" 
	d="
M201.054840,163.492798 
	C206.588684,163.125580 212.411819,163.092392 218.716812,163.093231 
	C213.247162,163.360458 207.295639,163.593643 201.054840,163.492798 
z"/>
<path fill="#031329" opacity="1.000000" stroke="none" 
	d="
M173.532593,94.692108 
	C173.024338,95.292168 172.203033,95.980598 171.037598,96.686493 
	C171.535477,96.062790 172.377502,95.421631 173.532593,94.692108 
z"/>
<path fill="#02091E" opacity="1.000000" stroke="none" 
	d="
M272.960083,255.275223 
	C273.027435,255.512955 272.972687,256.017670 272.699829,256.590942 
	C272.600464,256.287079 272.719208,255.914658 272.960083,255.275223 
z"/>
<path fill="#000305" opacity="1.000000" stroke="none" 
	d="
M166.917542,234.732971 
	C166.609253,234.734116 166.314270,234.481537 166.085693,234.075974 
	C166.411682,234.108398 166.671265,234.293823 166.917542,234.732971 
z"/>
<path fill="#010A12" opacity="1.000000" stroke="none" 
	d="
M166.634949,307.293396 
	C166.512634,307.137848 166.607254,306.792450 166.849609,306.223175 
	C166.948853,306.367371 166.900360,306.735443 166.634949,307.293396 
z"/>
<path fill="#031329" opacity="1.000000" stroke="none" 
	d="
M170.493256,96.734543 
	C170.523209,96.917068 170.289749,97.183182 169.808762,97.556244 
	C169.784088,97.381516 170.006973,97.099831 170.493256,96.734543 
z"/>
<path fill="#1995F9" opacity="1.000000" stroke="none" 
	d="
M234.399841,289.333801 
	C220.972412,299.769745 206.251053,294.316071 203.994843,277.693390 
	C203.206985,271.889008 203.458435,265.718384 204.493546,259.940460 
	C206.415894,249.210037 214.273010,244.881546 225.895493,247.498291 
	C228.596252,248.106339 231.115585,249.520294 233.945160,251.263062 
	C234.247894,264.419739 234.323868,276.876770 234.399841,289.333801 
z"/>
<path fill="#000305" opacity="1.000000" stroke="none" 
	d="
M234.697861,288.987000 
	C234.323868,276.876770 234.247894,264.419739 234.225464,251.499664 
	C234.836517,251.985229 235.872147,252.930649 235.878433,253.882874 
	C235.951019,264.870270 235.880600,275.858826 235.790680,286.846619 
	C235.785767,287.446564 235.272507,288.042389 234.697861,288.987000 
z"/>
<path fill="#1A95FB" opacity="1.000000" stroke="none" 
	d="
M109.493111,126.273338 
	C109.356705,129.191681 109.270607,131.685547 109.017761,134.162369 
	C107.698677,147.084183 100.900085,152.168594 88.348297,149.669495 
	C80.649773,148.136688 80.056366,147.415329 80.056328,139.590057 
	C80.056282,130.775558 80.166458,121.958908 79.994629,113.147758 
	C79.936676,110.176613 80.838776,108.160080 83.769432,107.718834 
	C88.479240,107.009705 93.270874,105.992508 97.965385,106.249229 
	C103.820999,106.569443 107.671288,111.771202 108.831955,119.388466 
	C109.157051,121.522003 109.261063,123.689217 109.493111,126.273338 
z"/>
<path fill="#1994F9" opacity="1.000000" stroke="none" 
	d="
M370.640930,278.193359 
	C371.230377,270.578033 371.040619,263.155609 372.857422,256.262024 
	C374.645050,249.479263 379.692261,247.062561 386.653137,247.229797 
	C392.913330,247.380219 397.492584,250.558319 399.699371,256.947052 
	C402.600861,265.346893 402.440887,273.995544 400.413757,282.530457 
	C398.574554,290.274261 393.070862,294.645996 385.989044,294.654968 
	C379.026764,294.663788 374.028412,290.608795 371.703796,282.986450 
	C371.270172,281.564575 371.055939,280.075775 370.640930,278.193359 
z"/>
<path fill="#1992F5" opacity="1.000000" stroke="none" 
	d="
M297.144287,249.005310 
	C301.583649,247.949844 305.717712,246.495316 309.866699,246.451538 
	C314.629547,246.401291 317.326233,249.721725 317.885834,254.443542 
	C318.438263,259.104889 315.928558,263.404236 311.064331,263.930267 
	C304.422363,264.648560 297.644440,264.109558 290.454559,264.109558 
	C290.958130,257.799103 292.645142,252.987091 297.144287,249.005310 
z"/>
<path fill="#1994F9" opacity="1.000000" stroke="none" 
	d="
M381.711456,121.798721 
	C380.618347,120.986496 379.396362,120.246063 379.374725,119.472084 
	C379.084320,109.080254 391.454559,101.453415 400.768555,106.178215 
	C404.453796,108.047691 405.267151,111.288132 404.865417,114.983536 
	C404.395538,119.305870 401.390961,121.498146 397.505676,121.807800 
	C392.415070,122.213516 387.265045,121.873932 381.711456,121.798721 
z"/>
</svg>